<svg width="254" height="47" viewBox="0 0 254 47" fill="none" xmlns="http://www.w3.org/2000/svg">
<path d="M8.72301 37H0.813921L12.8651 2.09091H22.3764L34.4105 37H26.5014L17.7571 10.0682H17.4844L8.72301 37ZM8.22869 23.2784H26.9105V29.0398H8.22869V23.2784ZM45.7372 21.8636V37H38.4759V10.8182H45.3963V15.4375H45.7031C46.2827 13.9148 47.2543 12.7102 48.6179 11.8239C49.9815 10.9261 51.6349 10.4773 53.5781 10.4773C55.3963 10.4773 56.9815 10.875 58.3338 11.6705C59.6861 12.4659 60.7372 13.6023 61.4872 15.0795C62.2372 16.5455 62.6122 18.2955 62.6122 20.3295V37H55.3509V21.625C55.3622 20.0227 54.9531 18.7727 54.1236 17.875C53.294 16.9659 52.152 16.5114 50.6974 16.5114C49.7202 16.5114 48.8565 16.7216 48.1065 17.142C47.3679 17.5625 46.7884 18.1761 46.3679 18.983C45.9588 19.7784 45.7486 20.7386 45.7372 21.8636ZM71.8807 46.8182C70.9602 46.8182 70.0966 46.7443 69.2898 46.5966C68.4943 46.4602 67.8352 46.2841 67.3125 46.0682L68.9489 40.6477C69.8011 40.9091 70.5682 41.0511 71.25 41.0739C71.9432 41.0966 72.5398 40.9375 73.0398 40.5966C73.5511 40.2557 73.9659 39.6761 74.2841 38.858L74.7102 37.75L65.3182 10.8182H72.9545L78.375 30.0455H78.6477L84.1193 10.8182H91.8068L81.6307 39.8295C81.142 41.2386 80.4773 42.4659 79.6364 43.5114C78.8068 44.5682 77.7557 45.3807 76.483 45.9489C75.2102 46.5284 73.6761 46.8182 71.8807 46.8182ZM109.602 10.8182V16.2727H93.4432V10.8182H109.602ZM97.142 37V8.92614C97.142 7.02841 97.5114 5.45454 98.25 4.20454C99 2.95454 100.023 2.01704 101.318 1.39204C102.614 0.767043 104.085 0.454543 105.733 0.454543C106.847 0.454543 107.864 0.539771 108.784 0.710227C109.716 0.880681 110.409 1.03409 110.864 1.17045L109.568 6.625C109.284 6.53409 108.932 6.44886 108.511 6.36932C108.102 6.28977 107.682 6.25 107.25 6.25C106.182 6.25 105.438 6.5 105.017 7C104.597 7.48864 104.386 8.17614 104.386 9.0625V37H97.142ZM114.038 37V10.8182H121.3V37H114.038ZM117.686 7.44318C116.607 7.44318 115.68 7.08523 114.908 6.36932C114.146 5.64204 113.766 4.77273 113.766 3.76136C113.766 2.76136 114.146 1.90341 114.908 1.1875C115.68 0.460226 116.607 0.0965891 117.686 0.0965891C118.766 0.0965891 119.686 0.460226 120.447 1.1875C121.22 1.90341 121.607 2.76136 121.607 3.76136C121.607 4.77273 121.22 5.64204 120.447 6.36932C119.686 7.08523 118.766 7.44318 117.686 7.44318ZM141.043 10.8182V16.2727H125.276V10.8182H141.043ZM128.855 4.54545H136.116V28.9545C136.116 29.625 136.219 30.1477 136.423 30.5227C136.628 30.8864 136.912 31.142 137.276 31.2898C137.651 31.4375 138.082 31.5114 138.571 31.5114C138.912 31.5114 139.253 31.483 139.594 31.4261C139.935 31.358 140.196 31.3068 140.378 31.2727L141.52 36.6761C141.156 36.7898 140.645 36.9205 139.986 37.0682C139.327 37.2273 138.526 37.3239 137.582 37.358C135.832 37.4261 134.298 37.1932 132.98 36.6591C131.673 36.125 130.656 35.2955 129.929 34.1705C129.202 33.0455 128.844 31.625 128.855 29.9091V4.54545ZM153.034 21.8636V37H145.773V10.8182H152.693V15.4375H153C153.58 13.9148 154.551 12.7102 155.915 11.8239C157.278 10.9261 158.932 10.4773 160.875 10.4773C162.693 10.4773 164.278 10.875 165.631 11.6705C166.983 12.4659 168.034 13.6023 168.784 15.0795C169.534 16.5455 169.909 18.2955 169.909 20.3295V37H162.648V21.625C162.659 20.0227 162.25 18.7727 161.42 17.875C160.591 16.9659 159.449 16.5114 157.994 16.5114C157.017 16.5114 156.153 16.7216 155.403 17.142C154.665 17.5625 154.085 18.1761 153.665 18.983C153.256 19.7784 153.045 20.7386 153.034 21.8636ZM187.564 37.5114C184.871 37.5114 182.553 36.9659 180.609 35.875C178.678 34.7727 177.189 33.2159 176.143 31.2045C175.098 29.1818 174.575 26.7898 174.575 24.0284C174.575 21.3352 175.098 18.9716 176.143 16.9375C177.189 14.9034 178.661 13.3182 180.558 12.1818C182.467 11.0455 184.706 10.4773 187.274 10.4773C189.001 10.4773 190.609 10.7557 192.098 11.3125C193.598 11.858 194.905 12.6818 196.018 13.7841C197.143 14.8864 198.018 16.2727 198.643 17.9432C199.268 19.6023 199.581 21.5455 199.581 23.7727V25.767H177.473V21.267H192.746C192.746 20.2216 192.518 19.2955 192.064 18.4886C191.609 17.6818 190.979 17.0511 190.172 16.5966C189.376 16.1307 188.45 15.8977 187.393 15.8977C186.291 15.8977 185.314 16.1534 184.462 16.6648C183.621 17.1648 182.962 17.8409 182.484 18.6932C182.007 19.5341 181.763 20.4716 181.751 21.5057V25.7841C181.751 27.0795 181.99 28.1989 182.467 29.142C182.956 30.0852 183.643 30.8125 184.53 31.3239C185.416 31.8352 186.467 32.0909 187.683 32.0909C188.49 32.0909 189.229 31.9773 189.899 31.75C190.57 31.5227 191.143 31.1818 191.621 30.7273C192.098 30.2727 192.462 29.7159 192.712 29.0568L199.428 29.5C199.087 31.1136 198.388 32.5227 197.331 33.7273C196.286 34.9205 194.933 35.8523 193.274 36.5227C191.626 37.1818 189.723 37.5114 187.564 37.5114ZM226.104 18.2841L219.456 18.6932C219.342 18.125 219.098 17.6136 218.723 17.1591C218.348 16.6932 217.854 16.3239 217.24 16.0511C216.638 15.767 215.916 15.625 215.075 15.625C213.95 15.625 213.001 15.8636 212.229 16.3409C211.456 16.8068 211.07 17.4318 211.07 18.2159C211.07 18.8409 211.32 19.3693 211.82 19.8011C212.32 20.233 213.178 20.5795 214.393 20.8409L219.132 21.7955C221.678 22.3182 223.575 23.1591 224.825 24.3182C226.075 25.4773 226.7 27 226.7 28.8864C226.7 30.6023 226.195 32.108 225.183 33.4034C224.183 34.6989 222.808 35.7102 221.058 36.4375C219.32 37.1534 217.314 37.5114 215.041 37.5114C211.575 37.5114 208.814 36.7898 206.757 35.3466C204.712 33.892 203.513 31.9148 203.161 29.4148L210.303 29.0398C210.518 30.0966 211.041 30.9034 211.871 31.4602C212.7 32.0057 213.763 32.2784 215.058 32.2784C216.331 32.2784 217.354 32.0341 218.126 31.5455C218.911 31.0455 219.308 30.4034 219.32 29.6193C219.308 28.9602 219.03 28.4205 218.484 28C217.939 27.5682 217.098 27.2386 215.962 27.0114L211.428 26.108C208.871 25.5966 206.967 24.7102 205.717 23.4489C204.479 22.1875 203.859 20.5795 203.859 18.625C203.859 16.9432 204.314 15.4943 205.223 14.2784C206.143 13.0625 207.433 12.125 209.092 11.4659C210.763 10.8068 212.717 10.4773 214.956 10.4773C218.263 10.4773 220.865 11.1761 222.763 12.5739C224.672 13.9716 225.786 15.875 226.104 18.2841ZM253.057 18.2841L246.409 18.6932C246.295 18.125 246.051 17.6136 245.676 17.1591C245.301 16.6932 244.807 16.3239 244.193 16.0511C243.591 15.767 242.869 15.625 242.028 15.625C240.903 15.625 239.955 15.8636 239.182 16.3409C238.409 16.8068 238.023 17.4318 238.023 18.2159C238.023 18.8409 238.273 19.3693 238.773 19.8011C239.273 20.233 240.131 20.5795 241.347 20.8409L246.085 21.7955C248.631 22.3182 250.528 23.1591 251.778 24.3182C253.028 25.4773 253.653 27 253.653 28.8864C253.653 30.6023 253.148 32.108 252.136 33.4034C251.136 34.6989 249.761 35.7102 248.011 36.4375C246.273 37.1534 244.267 37.5114 241.994 37.5114C238.528 37.5114 235.767 36.7898 233.71 35.3466C231.665 33.892 230.466 31.9148 230.114 29.4148L237.256 29.0398C237.472 30.0966 237.994 30.9034 238.824 31.4602C239.653 32.0057 240.716 32.2784 242.011 32.2784C243.284 32.2784 244.307 32.0341 245.08 31.5455C245.864 31.0455 246.261 30.4034 246.273 29.6193C246.261 28.9602 245.983 28.4205 245.438 28C244.892 27.5682 244.051 27.2386 242.915 27.0114L238.381 26.108C235.824 25.5966 233.92 24.7102 232.67 23.4489C231.432 22.1875 230.812 20.5795 230.812 18.625C230.812 16.9432 231.267 15.4943 232.176 14.2784C233.097 13.0625 234.386 12.125 236.045 11.4659C237.716 10.8068 239.67 10.4773 241.909 10.4773C245.216 10.4773 247.818 11.1761 249.716 12.5739C251.625 13.9716 252.739 15.875 253.057 18.2841Z" fill="white"/>
</svg>
