<svg width="169" height="33" viewBox="0 0 169 33" fill="none" xmlns="http://www.w3.org/2000/svg">
<path d="M5.31534 25.5H0.0426137L8.0767 2.22727H14.4176L22.4403 25.5H17.1676L11.3381 7.54545H11.1562L5.31534 25.5ZM4.9858 16.3523H17.4403V20.1932H4.9858V16.3523ZM29.9915 15.4091V25.5H25.1506V8.04545H29.7642V11.125H29.9688C30.3551 10.1098 31.0028 9.30682 31.9119 8.71591C32.821 8.11742 33.9233 7.81818 35.2188 7.81818C36.4309 7.81818 37.4877 8.08333 38.3892 8.61364C39.2907 9.14394 39.9915 9.90151 40.4915 10.8864C40.9915 11.8636 41.2415 13.0303 41.2415 14.3864V25.5H36.4006V15.25C36.4081 14.1818 36.1354 13.3485 35.5824 12.75C35.0294 12.1439 34.268 11.8409 33.2983 11.8409C32.6468 11.8409 32.071 11.9811 31.571 12.2614C31.0786 12.5417 30.6922 12.9508 30.4119 13.4886C30.1392 14.0189 29.9991 14.6591 29.9915 15.4091ZM47.4205 32.0455C46.8068 32.0455 46.2311 31.9962 45.6932 31.8977C45.1629 31.8068 44.7235 31.6894 44.375 31.5455L45.4659 27.9318C46.0341 28.1061 46.5455 28.2008 47 28.2159C47.4621 28.2311 47.8598 28.125 48.1932 27.8977C48.5341 27.6705 48.8106 27.2841 49.0227 26.7386L49.3068 26L43.0455 8.04545H48.1364L51.75 20.8636H51.9318L55.5795 8.04545H60.7045L53.9205 27.3864C53.5947 28.3258 53.1515 29.1439 52.5909 29.8409C52.0379 30.5455 51.3371 31.0871 50.4886 31.4659C49.6402 31.8523 48.6174 32.0455 47.4205 32.0455ZM72.5682 8.04545V11.6818H61.7955V8.04545H72.5682ZM64.2614 25.5V6.78409C64.2614 5.51894 64.5076 4.4697 65 3.63636C65.5 2.80303 66.1818 2.17803 67.0455 1.76136C67.9091 1.3447 68.8902 1.13636 69.9886 1.13636C70.7311 1.13636 71.4091 1.19318 72.0227 1.30682C72.6439 1.42045 73.1061 1.52273 73.4091 1.61364L72.5455 5.25C72.3561 5.18939 72.1212 5.13257 71.8409 5.07954C71.5682 5.02651 71.2879 5 71 5C70.2879 5 69.7917 5.16667 69.5114 5.5C69.2311 5.82576 69.0909 6.28409 69.0909 6.875V25.5H64.2614ZM75.5256 25.5V8.04545H80.3665V25.5H75.5256ZM77.9574 5.79545C77.2377 5.79545 76.6203 5.55682 76.1051 5.07954C75.5975 4.5947 75.3438 4.01515 75.3438 3.34091C75.3438 2.67424 75.5975 2.10227 76.1051 1.625C76.6203 1.14015 77.2377 0.897726 77.9574 0.897726C78.6771 0.897726 79.2907 1.14015 79.7983 1.625C80.3134 2.10227 80.571 2.67424 80.571 3.34091C80.571 4.01515 80.3134 4.5947 79.7983 5.07954C79.2907 5.55682 78.6771 5.79545 77.9574 5.79545ZM93.5284 8.04545V11.6818H83.017V8.04545H93.5284ZM85.4034 3.86364H90.2443V20.1364C90.2443 20.5833 90.3125 20.9318 90.4489 21.1818C90.5852 21.4242 90.7746 21.5947 91.017 21.6932C91.267 21.7917 91.5549 21.8409 91.8807 21.8409C92.108 21.8409 92.3352 21.822 92.5625 21.7841C92.7898 21.7386 92.964 21.7045 93.0852 21.6818L93.8466 25.2841C93.6042 25.3598 93.2633 25.447 92.8239 25.5455C92.3845 25.6515 91.8504 25.7159 91.2216 25.7386C90.0549 25.7841 89.0322 25.6288 88.1534 25.2727C87.2822 24.9167 86.6042 24.3636 86.1193 23.6136C85.6345 22.8636 85.3958 21.9167 85.4034 20.7727V3.86364ZM101.523 15.4091V25.5H96.6818V8.04545H101.295V11.125H101.5C101.886 10.1098 102.534 9.30682 103.443 8.71591C104.352 8.11742 105.455 7.81818 106.75 7.81818C107.962 7.81818 109.019 8.08333 109.92 8.61364C110.822 9.14394 111.523 9.90151 112.023 10.8864C112.523 11.8636 112.773 13.0303 112.773 14.3864V25.5H107.932V15.25C107.939 14.1818 107.667 13.3485 107.114 12.75C106.561 12.1439 105.799 11.8409 104.83 11.8409C104.178 11.8409 103.602 11.9811 103.102 12.2614C102.61 12.5417 102.223 12.9508 101.943 13.4886C101.67 14.0189 101.53 14.6591 101.523 15.4091ZM124.543 25.8409C122.747 25.8409 121.202 25.4773 119.906 24.75C118.618 24.0152 117.626 22.9773 116.929 21.6364C116.232 20.2879 115.884 18.6932 115.884 16.8523C115.884 15.0568 116.232 13.4811 116.929 12.125C117.626 10.7689 118.607 9.71212 119.872 8.95454C121.145 8.19697 122.637 7.81818 124.349 7.81818C125.501 7.81818 126.573 8.00379 127.565 8.375C128.565 8.73864 129.437 9.28788 130.179 10.0227C130.929 10.7576 131.512 11.6818 131.929 12.7955C132.346 13.9015 132.554 15.197 132.554 16.6818V18.0114H117.815V15.0114H127.997C127.997 14.3144 127.846 13.697 127.543 13.1591C127.24 12.6212 126.819 12.2008 126.281 11.8977C125.751 11.5871 125.134 11.4318 124.429 11.4318C123.694 11.4318 123.043 11.6023 122.474 11.9432C121.914 12.2765 121.474 12.7273 121.156 13.2955C120.838 13.8561 120.675 14.4811 120.668 15.1705V18.0227C120.668 18.8864 120.827 19.6326 121.145 20.2614C121.471 20.8902 121.929 21.375 122.52 21.7159C123.111 22.0568 123.812 22.2273 124.622 22.2273C125.16 22.2273 125.652 22.1515 126.099 22C126.546 21.8485 126.929 21.6212 127.247 21.3182C127.565 21.0152 127.808 20.6439 127.974 20.2045L132.452 20.5C132.224 21.5758 131.759 22.5152 131.054 23.3182C130.357 24.1136 129.455 24.7348 128.349 25.1818C127.251 25.6212 125.982 25.8409 124.543 25.8409ZM150.236 13.0227L145.804 13.2955C145.728 12.9167 145.565 12.5758 145.315 12.2727C145.065 11.9621 144.736 11.7159 144.327 11.5341C143.925 11.3447 143.444 11.25 142.884 11.25C142.134 11.25 141.501 11.4091 140.986 11.7273C140.471 12.0379 140.213 12.4545 140.213 12.9773C140.213 13.3939 140.38 13.7462 140.713 14.0341C141.046 14.322 141.618 14.553 142.429 14.7273L145.588 15.3636C147.285 15.7121 148.55 16.2727 149.384 17.0455C150.217 17.8182 150.634 18.8333 150.634 20.0909C150.634 21.2348 150.296 22.2386 149.622 23.1023C148.955 23.9659 148.039 24.6402 146.872 25.125C145.713 25.6023 144.376 25.8409 142.861 25.8409C140.55 25.8409 138.709 25.3598 137.338 24.3977C135.974 23.428 135.175 22.1098 134.94 20.4432L139.702 20.1932C139.846 20.8977 140.194 21.4356 140.747 21.8068C141.3 22.1705 142.009 22.3523 142.872 22.3523C143.721 22.3523 144.402 22.1894 144.918 21.8636C145.44 21.5303 145.705 21.1023 145.713 20.5795C145.705 20.1402 145.52 19.7803 145.156 19.5C144.793 19.2121 144.232 18.9924 143.474 18.8409L140.452 18.2386C138.747 17.8977 137.478 17.3068 136.645 16.4659C135.819 15.625 135.406 14.553 135.406 13.25C135.406 12.1288 135.709 11.1629 136.315 10.3523C136.929 9.54167 137.789 8.91667 138.895 8.47727C140.009 8.03788 141.312 7.81818 142.804 7.81818C145.009 7.81818 146.743 8.28409 148.009 9.21591C149.281 10.1477 150.024 11.4167 150.236 13.0227ZM168.205 13.0227L163.773 13.2955C163.697 12.9167 163.534 12.5758 163.284 12.2727C163.034 11.9621 162.705 11.7159 162.295 11.5341C161.894 11.3447 161.413 11.25 160.852 11.25C160.102 11.25 159.47 11.4091 158.955 11.7273C158.439 12.0379 158.182 12.4545 158.182 12.9773C158.182 13.3939 158.348 13.7462 158.682 14.0341C159.015 14.322 159.587 14.553 160.398 14.7273L163.557 15.3636C165.254 15.7121 166.519 16.2727 167.352 17.0455C168.186 17.8182 168.602 18.8333 168.602 20.0909C168.602 21.2348 168.265 22.2386 167.591 23.1023C166.924 23.9659 166.008 24.6402 164.841 25.125C163.682 25.6023 162.345 25.8409 160.83 25.8409C158.519 25.8409 156.678 25.3598 155.307 24.3977C153.943 23.428 153.144 22.1098 152.909 20.4432L157.67 20.1932C157.814 20.8977 158.163 21.4356 158.716 21.8068C159.269 22.1705 159.977 22.3523 160.841 22.3523C161.689 22.3523 162.371 22.1894 162.886 21.8636C163.409 21.5303 163.674 21.1023 163.682 20.5795C163.674 20.1402 163.489 19.7803 163.125 19.5C162.761 19.2121 162.201 18.9924 161.443 18.8409L158.42 18.2386C156.716 17.8977 155.447 17.3068 154.614 16.4659C153.788 15.625 153.375 14.553 153.375 13.25C153.375 12.1288 153.678 11.1629 154.284 10.3523C154.898 9.54167 155.758 8.91667 156.864 8.47727C157.977 8.03788 159.28 7.81818 160.773 7.81818C162.977 7.81818 164.712 8.28409 165.977 9.21591C167.25 10.1477 167.992 11.4167 168.205 13.0227Z" fill="white"/>
</svg>
