<svg width="171" height="11" viewBox="0 0 171 11" fill="none" xmlns="http://www.w3.org/2000/svg">
<path d="M0.538251 0.318182H2.28328L4.94308 4.94673H5.05246L7.71226 0.318182H9.45729L5.76339 6.50284V10.5H4.23214V6.50284L0.538251 0.318182ZM13.1672 10.6541C12.4513 10.6541 11.8266 10.4901 11.2929 10.1619C10.7593 9.83381 10.345 9.37476 10.05 8.7848C9.75507 8.19484 9.60758 7.50544 9.60758 6.71662C9.60758 5.92448 9.75507 5.23177 10.05 4.63849C10.345 4.04522 10.7593 3.58452 11.2929 3.25639C11.8266 2.92827 12.4513 2.7642 13.1672 2.7642C13.8831 2.7642 14.5079 2.92827 15.0415 3.25639C15.5751 3.58452 15.9894 4.04522 16.2844 4.63849C16.5794 5.23177 16.7269 5.92448 16.7269 6.71662C16.7269 7.50544 16.5794 8.19484 16.2844 8.7848C15.9894 9.37476 15.5751 9.83381 15.0415 10.1619C14.5079 10.4901 13.8831 10.6541 13.1672 10.6541ZM13.1722 9.40625C13.6362 9.40625 14.0207 9.28362 14.3256 9.03835C14.6305 8.79309 14.8559 8.46662 15.0018 8.05895C15.1509 7.65128 15.2255 7.20218 15.2255 6.71165C15.2255 6.22443 15.1509 5.77699 15.0018 5.36932C14.8559 4.95833 14.6305 4.62855 14.3256 4.37997C14.0207 4.13139 13.6362 4.0071 13.1722 4.0071C12.7049 4.0071 12.3171 4.13139 12.0089 4.37997C11.7039 4.62855 11.4769 4.95833 11.3277 5.36932C11.1819 5.77699 11.109 6.22443 11.109 6.71165C11.109 7.20218 11.1819 7.65128 11.3277 8.05895C11.4769 8.46662 11.7039 8.79309 12.0089 9.03835C12.3171 9.28362 12.7049 9.40625 13.1722 9.40625ZM23.6435 7.3331V2.86364H25.135V10.5H23.6734V9.17756H23.5938C23.4181 9.58523 23.1364 9.92495 22.7486 10.1967C22.3642 10.4652 21.8852 10.5994 21.3118 10.5994C20.8213 10.5994 20.3871 10.4917 20.0093 10.2763C19.6348 10.0575 19.3398 9.73438 19.1243 9.30682C18.9122 8.87926 18.8062 8.35062 18.8062 7.72088V2.86364H20.2927V7.5419C20.2927 8.06226 20.4368 8.47656 20.7252 8.7848C21.0135 9.09304 21.3881 9.24716 21.8488 9.24716C22.1272 9.24716 22.4039 9.17756 22.679 9.03835C22.9574 8.89915 23.1878 8.68868 23.3701 8.40696C23.5557 8.12524 23.6468 7.76728 23.6435 7.3331ZM27.5523 10.5V2.86364H28.9891V4.0767H29.0687C29.2079 3.66572 29.4531 3.34257 29.8045 3.10724C30.1591 2.86861 30.5601 2.74929 31.0076 2.74929C31.1004 2.74929 31.2098 2.7526 31.3357 2.75923C31.465 2.76586 31.5661 2.77415 31.639 2.78409V4.20597C31.5793 4.18939 31.4733 4.17116 31.3208 4.15128C31.1683 4.12808 31.0159 4.11648 30.8634 4.11648C30.5121 4.11648 30.1989 4.19105 29.9238 4.3402C29.652 4.48603 29.4366 4.68987 29.2775 4.9517C29.1184 5.21023 29.0388 5.50521 29.0388 5.83665V10.5H27.5523ZM37.5898 10.5V0.318182H39.126V4.7429H44.202V0.318182H45.7432V10.5H44.202V6.06037H39.126V10.5H37.5898ZM51.5723 10.6541C50.8199 10.6541 50.1719 10.4934 49.6284 10.1719C49.0881 9.84706 48.6705 9.39134 48.3755 8.80469C48.0839 8.21473 47.938 7.52367 47.938 6.73153C47.938 5.94934 48.0839 5.25994 48.3755 4.66335C48.6705 4.06676 49.0815 3.60109 49.6085 3.26633C50.1388 2.93158 50.7586 2.7642 51.4679 2.7642C51.8987 2.7642 52.3164 2.83546 52.7207 2.97798C53.1251 3.1205 53.488 3.34422 53.8095 3.64915C54.131 3.95407 54.3845 4.35014 54.5701 4.83736C54.7558 5.32126 54.8486 5.90956 54.8486 6.60227V7.12926H48.7782V6.01562H53.3919C53.3919 5.62453 53.3123 5.27817 53.1532 4.97656C52.9942 4.67164 52.7704 4.43134 52.4821 4.25568C52.197 4.08002 51.8623 3.99219 51.4778 3.99219C51.0602 3.99219 50.6956 4.09493 50.3841 4.30043C50.0758 4.5026 49.8372 4.76776 49.6682 5.09588C49.5024 5.42069 49.4196 5.77367 49.4196 6.15483V7.02486C49.4196 7.53527 49.5091 7.96946 49.688 8.32741C49.8703 8.68537 50.1239 8.95881 50.4487 9.14773C50.7735 9.33333 51.153 9.42614 51.5872 9.42614C51.8689 9.42614 52.1258 9.38636 52.3578 9.30682C52.5898 9.22396 52.7903 9.10133 52.9594 8.93892C53.1284 8.77652 53.2576 8.57599 53.3471 8.33736L54.7541 8.59091C54.6414 9.00521 54.4392 9.36813 54.1476 9.67969C53.8592 9.98793 53.4963 10.2282 53.0588 10.4006C52.6246 10.5696 52.1291 10.6541 51.5723 10.6541ZM59.1402 10.669C58.6563 10.669 58.2188 10.5795 57.8277 10.4006C57.4366 10.2183 57.1267 9.95478 56.898 9.61009C56.6726 9.26539 56.5599 8.8428 56.5599 8.34233C56.5599 7.91146 56.6428 7.55682 56.8085 7.27841C56.9742 7 57.1979 6.77959 57.4797 6.61719C57.7614 6.45478 58.0763 6.33215 58.4243 6.24929C58.7723 6.16643 59.1269 6.10346 59.4882 6.06037C59.9456 6.00734 60.3168 5.96425 60.6018 5.93111C60.8869 5.89465 61.094 5.83665 61.2233 5.7571C61.3525 5.67756 61.4172 5.5483 61.4172 5.36932V5.33452C61.4172 4.90033 61.2945 4.56392 61.0493 4.32528C60.8073 4.08665 60.4461 3.96733 59.9655 3.96733C59.465 3.96733 59.0706 4.07836 58.7822 4.30043C58.4972 4.51918 58.3 4.76278 58.1906 5.03125L56.7936 4.71307C56.9593 4.24905 57.2013 3.87453 57.5194 3.58949C57.8409 3.30114 58.2105 3.09233 58.6281 2.96307C59.0457 2.83049 59.4849 2.7642 59.9456 2.7642C60.2505 2.7642 60.5737 2.80066 60.915 2.87358C61.2597 2.94318 61.5812 3.07244 61.8795 3.26136C62.1811 3.45028 62.4281 3.72041 62.6203 4.07173C62.8125 4.41974 62.9086 4.87216 62.9086 5.42898V10.5H61.4569V9.45597H61.3973C61.3012 9.6482 61.157 9.83712 60.9648 10.0227C60.7725 10.2083 60.5256 10.3625 60.224 10.4851C59.9224 10.6077 59.5611 10.669 59.1402 10.669ZM59.4633 9.47585C59.8743 9.47585 60.2256 9.39465 60.5173 9.23224C60.8123 9.06984 61.036 8.85772 61.1885 8.59588C61.3443 8.33073 61.4221 8.04735 61.4221 7.74574V6.76136C61.3691 6.81439 61.2664 6.86411 61.1139 6.91051C60.9648 6.9536 60.7941 6.99171 60.6018 7.02486C60.4096 7.05469 60.2223 7.08286 60.04 7.10938C59.8577 7.13258 59.7053 7.15246 59.5827 7.16903C59.2943 7.20549 59.0308 7.26681 58.7922 7.35298C58.5568 7.43916 58.3679 7.56345 58.2254 7.72585C58.0862 7.88494 58.0166 8.09706 58.0166 8.36222C58.0166 8.73011 58.1525 9.00852 58.4243 9.19744C58.6961 9.38305 59.0424 9.47585 59.4633 9.47585ZM66.7951 0.318182V10.5H65.3086V0.318182H66.7951ZM72.7795 2.86364V4.05682H68.6084V2.86364H72.7795ZM69.727 1.03409H71.2135V8.25781C71.2135 8.54616 71.2566 8.76326 71.3428 8.90909C71.4289 9.05161 71.54 9.14938 71.6758 9.20241C71.8151 9.25213 71.9659 9.27699 72.1283 9.27699C72.2476 9.27699 72.352 9.2687 72.4415 9.25213C72.531 9.23556 72.6006 9.2223 72.6503 9.21236L72.9187 10.4403C72.8326 10.4735 72.7099 10.5066 72.5508 10.5398C72.3918 10.5762 72.1929 10.5961 71.9543 10.5994C71.5632 10.6061 71.1986 10.5365 70.8605 10.3906C70.5224 10.2448 70.249 10.0194 70.0402 9.71449C69.8314 9.40956 69.727 9.02675 69.727 8.56605V1.03409ZM76.4945 5.96591V10.5H75.008V0.318182H76.4746V4.10653H76.569C76.748 3.69555 77.0215 3.36908 77.3893 3.12713C77.7572 2.88518 78.2378 2.7642 78.8311 2.7642C79.3548 2.7642 79.8122 2.87192 80.2033 3.08736C80.5977 3.30279 80.9026 3.62429 81.118 4.05185C81.3368 4.47609 81.4462 5.00639 81.4462 5.64276V10.5H79.9597V5.82173C79.9597 5.2616 79.8155 4.82741 79.5271 4.51918C79.2388 4.20762 78.8377 4.05185 78.324 4.05185C77.9727 4.05185 77.6578 4.12642 77.3794 4.27557C77.1043 4.42472 76.8872 4.64347 76.7281 4.93182C76.5724 5.21686 76.4945 5.56155 76.4945 5.96591ZM93.6475 2.9929C93.5945 2.52225 93.3757 2.15767 92.9912 1.89915C92.6068 1.63731 92.1229 1.50639 91.5395 1.50639C91.1219 1.50639 90.7607 1.57268 90.4557 1.70526C90.1508 1.83452 89.9138 2.01349 89.7448 2.24219C89.5791 2.46757 89.4962 2.72443 89.4962 3.01278C89.4962 3.25473 89.5526 3.46354 89.6653 3.6392C89.7813 3.81487 89.9321 3.96236 90.1177 4.08168C90.3066 4.19768 90.5088 4.29545 90.7242 4.375C90.9396 4.45123 91.1468 4.5142 91.3457 4.56392L92.34 4.82244C92.6648 4.90199 92.9979 5.00971 93.3393 5.1456C93.6806 5.28149 93.9972 5.46046 94.2888 5.68253C94.5805 5.90459 94.8158 6.17969 94.9948 6.50781C95.1771 6.83594 95.2682 7.22869 95.2682 7.68608C95.2682 8.26278 95.1191 8.77486 94.8208 9.2223C94.5258 9.66974 94.0966 10.0227 93.5332 10.2812C92.973 10.5398 92.2952 10.669 91.4998 10.669C90.7375 10.669 90.0779 10.5481 89.5211 10.3061C88.9643 10.0642 88.5284 9.72112 88.2136 9.27699C87.8987 8.82955 87.7247 8.29924 87.6915 7.68608H89.2327C89.2626 8.05398 89.3819 8.36056 89.5907 8.60582C89.8028 8.84777 90.0729 9.02841 90.4011 9.14773C90.7325 9.26373 91.0954 9.32173 91.4898 9.32173C91.924 9.32173 92.3101 9.25379 92.6482 9.1179C92.9896 8.97869 93.2581 8.78646 93.4536 8.54119C93.6492 8.29261 93.7469 8.0026 93.7469 7.67116C93.7469 7.36955 93.6608 7.12263 93.4884 6.9304C93.3194 6.73816 93.089 6.57907 92.7974 6.45312C92.509 6.32718 92.1825 6.21615 91.818 6.12003L90.6148 5.7919C89.7995 5.56984 89.1532 5.24337 88.6759 4.8125C88.2019 4.38163 87.965 3.81155 87.965 3.10227C87.965 2.51562 88.1241 2.00355 88.4422 1.56605C88.7604 1.12855 89.1913 0.788825 89.7349 0.546875C90.2784 0.30161 90.8916 0.178977 91.5743 0.178977C92.2637 0.178977 92.8719 0.299952 93.3989 0.541903C93.9292 0.783854 94.3468 1.11695 94.6518 1.54119C94.9567 1.96212 95.1158 2.44602 95.129 2.9929H93.6475ZM100.969 2.86364V4.05682H96.7981V2.86364H100.969ZM97.9168 1.03409H99.4033V8.25781C99.4033 8.54616 99.4463 8.76326 99.5325 8.90909C99.6187 9.05161 99.7297 9.14938 99.8656 9.20241C100.005 9.25213 100.156 9.27699 100.318 9.27699C100.437 9.27699 100.542 9.2687 100.631 9.25213C100.721 9.23556 100.79 9.2223 100.84 9.21236L101.109 10.4403C101.022 10.4735 100.9 10.5066 100.741 10.5398C100.582 10.5762 100.383 10.5961 100.144 10.5994C99.7529 10.6061 99.3883 10.5365 99.0503 10.3906C98.7122 10.2448 98.4388 10.0194 98.23 9.71449C98.0212 9.40956 97.9168 9.02675 97.9168 8.56605V1.03409ZM105.256 10.669C104.772 10.669 104.335 10.5795 103.943 10.4006C103.552 10.2183 103.242 9.95478 103.014 9.61009C102.788 9.26539 102.676 8.8428 102.676 8.34233C102.676 7.91146 102.759 7.55682 102.924 7.27841C103.09 7 103.314 6.77959 103.595 6.61719C103.877 6.45478 104.192 6.33215 104.54 6.24929C104.888 6.16643 105.243 6.10346 105.604 6.06037C106.061 6.00734 106.433 5.96425 106.718 5.93111C107.003 5.89465 107.21 5.83665 107.339 5.7571C107.468 5.67756 107.533 5.5483 107.533 5.36932V5.33452C107.533 4.90033 107.41 4.56392 107.165 4.32528C106.923 4.08665 106.562 3.96733 106.081 3.96733C105.581 3.96733 105.186 4.07836 104.898 4.30043C104.613 4.51918 104.416 4.76278 104.306 5.03125L102.909 4.71307C103.075 4.24905 103.317 3.87453 103.635 3.58949C103.957 3.30114 104.326 3.09233 104.744 2.96307C105.162 2.83049 105.601 2.7642 106.061 2.7642C106.366 2.7642 106.689 2.80066 107.031 2.87358C107.376 2.94318 107.697 3.07244 107.995 3.26136C108.297 3.45028 108.544 3.72041 108.736 4.07173C108.928 4.41974 109.024 4.87216 109.024 5.42898V10.5H107.573V9.45597H107.513C107.417 9.6482 107.273 9.83712 107.081 10.0227C106.888 10.2083 106.641 10.3625 106.34 10.4851C106.038 10.6077 105.677 10.669 105.256 10.669ZM105.579 9.47585C105.99 9.47585 106.341 9.39465 106.633 9.23224C106.928 9.06984 107.152 8.85772 107.304 8.59588C107.46 8.33073 107.538 8.04735 107.538 7.74574V6.76136C107.485 6.81439 107.382 6.86411 107.23 6.91051C107.081 6.9536 106.91 6.99171 106.718 7.02486C106.525 7.05469 106.338 7.08286 106.156 7.10938C105.974 7.13258 105.821 7.15246 105.698 7.16903C105.41 7.20549 105.147 7.26681 104.908 7.35298C104.673 7.43916 104.484 7.56345 104.341 7.72585C104.202 7.88494 104.132 8.09706 104.132 8.36222C104.132 8.73011 104.268 9.00852 104.54 9.19744C104.812 9.38305 105.158 9.47585 105.579 9.47585ZM111.424 10.5V2.86364H112.861V4.0767H112.941C113.08 3.66572 113.325 3.34257 113.676 3.10724C114.031 2.86861 114.432 2.74929 114.88 2.74929C114.972 2.74929 115.082 2.7526 115.208 2.75923C115.337 2.76586 115.438 2.77415 115.511 2.78409V4.20597C115.451 4.18939 115.345 4.17116 115.193 4.15128C115.04 4.12808 114.888 4.11648 114.735 4.11648C114.384 4.11648 114.071 4.19105 113.796 4.3402C113.524 4.48603 113.309 4.68987 113.15 4.9517C112.99 5.21023 112.911 5.50521 112.911 5.83665V10.5H111.424ZM121.233 2.86364V4.05682H117.062V2.86364H121.233ZM118.181 1.03409H119.667V8.25781C119.667 8.54616 119.71 8.76326 119.796 8.90909C119.883 9.05161 119.994 9.14938 120.13 9.20241C120.269 9.25213 120.42 9.27699 120.582 9.27699C120.701 9.27699 120.806 9.2687 120.895 9.25213C120.985 9.23556 121.054 9.2223 121.104 9.21236L121.372 10.4403C121.286 10.4735 121.164 10.5066 121.005 10.5398C120.845 10.5762 120.647 10.5961 120.408 10.5994C120.017 10.6061 119.652 10.5365 119.314 10.3906C118.976 10.2448 118.703 10.0194 118.494 9.71449C118.285 9.40956 118.181 9.02675 118.181 8.56605V1.03409ZM128.897 4.72798L127.55 4.96662C127.493 4.79427 127.404 4.63021 127.281 4.47443C127.162 4.31865 126.999 4.19105 126.794 4.09162C126.588 3.99219 126.331 3.94247 126.023 3.94247C125.602 3.94247 125.251 4.03693 124.969 4.22585C124.688 4.41146 124.547 4.65175 124.547 4.94673C124.547 5.20194 124.641 5.40743 124.83 5.56321C125.019 5.71899 125.324 5.84659 125.745 5.94602L126.958 6.22443C127.661 6.38684 128.184 6.63707 128.529 6.97514C128.874 7.31321 129.046 7.75237 129.046 8.29261C129.046 8.75 128.913 9.15767 128.648 9.51562C128.386 9.87027 128.02 10.1487 127.55 10.3509C127.082 10.553 126.54 10.6541 125.924 10.6541C125.069 10.6541 124.371 10.4718 123.831 10.1072C123.291 9.73935 122.959 9.21733 122.836 8.54119L124.273 8.32244C124.363 8.69697 124.547 8.98035 124.825 9.17259C125.103 9.36151 125.466 9.45597 125.914 9.45597C126.401 9.45597 126.791 9.35488 127.082 9.1527C127.374 8.94721 127.52 8.69697 127.52 8.40199C127.52 8.16335 127.43 7.96283 127.251 7.80043C127.076 7.63802 126.805 7.51539 126.441 7.43253L125.148 7.14915C124.436 6.98674 123.909 6.72822 123.567 6.37358C123.229 6.01894 123.06 5.56984 123.06 5.02628C123.06 4.57552 123.186 4.18111 123.438 3.84304C123.69 3.50497 124.038 3.24148 124.482 3.05256C124.926 2.86032 125.435 2.7642 126.008 2.7642C126.834 2.7642 127.483 2.94318 127.957 3.30114C128.431 3.65578 128.744 4.13139 128.897 4.72798ZM135.345 10.5V0.318182H136.881V4.7429H141.957V0.318182H143.498V10.5H141.957V6.06037H136.881V10.5H135.345ZM149.327 10.6541C148.575 10.6541 147.927 10.4934 147.383 10.1719C146.843 9.84706 146.426 9.39134 146.131 8.80469C145.839 8.21473 145.693 7.52367 145.693 6.73153C145.693 5.94934 145.839 5.25994 146.131 4.66335C146.426 4.06676 146.837 3.60109 147.363 3.26633C147.894 2.93158 148.514 2.7642 149.223 2.7642C149.654 2.7642 150.071 2.83546 150.476 2.97798C150.88 3.1205 151.243 3.34422 151.564 3.64915C151.886 3.95407 152.14 4.35014 152.325 4.83736C152.511 5.32126 152.604 5.90956 152.604 6.60227V7.12926H146.533V6.01562H151.147C151.147 5.62453 151.067 5.27817 150.908 4.97656C150.749 4.67164 150.525 4.43134 150.237 4.25568C149.952 4.08002 149.617 3.99219 149.233 3.99219C148.815 3.99219 148.451 4.09493 148.139 4.30043C147.831 4.5026 147.592 4.76776 147.423 5.09588C147.257 5.42069 147.175 5.77367 147.175 6.15483V7.02486C147.175 7.53527 147.264 7.96946 147.443 8.32741C147.625 8.68537 147.879 8.95881 148.204 9.14773C148.529 9.33333 148.908 9.42614 149.342 9.42614C149.624 9.42614 149.881 9.38636 150.113 9.30682C150.345 9.22396 150.545 9.10133 150.714 8.93892C150.883 8.77652 151.013 8.57599 151.102 8.33736L152.509 8.59091C152.396 9.00521 152.194 9.36813 151.903 9.67969C151.614 9.98793 151.251 10.2282 150.814 10.4006C150.38 10.5696 149.884 10.6541 149.327 10.6541ZM154.673 10.5V2.86364H156.11V4.0767H156.189C156.328 3.66572 156.574 3.34257 156.925 3.10724C157.28 2.86861 157.681 2.74929 158.128 2.74929C158.221 2.74929 158.33 2.7526 158.456 2.75923C158.586 2.76586 158.687 2.77415 158.76 2.78409V4.20597C158.7 4.18939 158.594 4.17116 158.441 4.15128C158.289 4.12808 158.136 4.11648 157.984 4.11648C157.633 4.11648 157.319 4.19105 157.044 4.3402C156.773 4.48603 156.557 4.68987 156.398 4.9517C156.239 5.21023 156.159 5.50521 156.159 5.83665V10.5H154.673ZM163.484 10.6541C162.731 10.6541 162.083 10.4934 161.54 10.1719C161 9.84706 160.582 9.39134 160.287 8.80469C159.995 8.21473 159.849 7.52367 159.849 6.73153C159.849 5.94934 159.995 5.25994 160.287 4.66335C160.582 4.06676 160.993 3.60109 161.52 3.26633C162.05 2.93158 162.67 2.7642 163.379 2.7642C163.81 2.7642 164.228 2.83546 164.632 2.97798C165.036 3.1205 165.399 3.34422 165.721 3.64915C166.042 3.95407 166.296 4.35014 166.482 4.83736C166.667 5.32126 166.76 5.90956 166.76 6.60227V7.12926H160.69V6.01562H165.303C165.303 5.62453 165.224 5.27817 165.065 4.97656C164.906 4.67164 164.682 4.43134 164.393 4.25568C164.108 4.08002 163.774 3.99219 163.389 3.99219C162.972 3.99219 162.607 4.09493 162.295 4.30043C161.987 4.5026 161.749 4.76776 161.58 5.09588C161.414 5.42069 161.331 5.77367 161.331 6.15483V7.02486C161.331 7.53527 161.42 7.96946 161.599 8.32741C161.782 8.68537 162.035 8.95881 162.36 9.14773C162.685 9.33333 163.064 9.42614 163.499 9.42614C163.78 9.42614 164.037 9.38636 164.269 9.30682C164.501 9.22396 164.702 9.10133 164.871 8.93892C165.04 8.77652 165.169 8.57599 165.259 8.33736L166.666 8.59091C166.553 9.00521 166.351 9.36813 166.059 9.67969C165.771 9.98793 165.408 10.2282 164.97 10.4006C164.536 10.5696 164.041 10.6541 163.484 10.6541ZM169.809 10.5945C169.537 10.5945 169.303 10.4983 169.108 10.3061C168.912 10.1106 168.814 9.87524 168.814 9.60014C168.814 9.32836 168.912 9.09635 169.108 8.90412C169.303 8.70857 169.537 8.6108 169.809 8.6108C170.08 8.6108 170.314 8.70857 170.51 8.90412C170.705 9.09635 170.803 9.32836 170.803 9.60014C170.803 9.78243 170.757 9.94981 170.664 10.1023C170.574 10.2514 170.455 10.3707 170.306 10.4602C170.157 10.5497 169.991 10.5945 169.809 10.5945Z" fill="#D9D9D9"/>
</svg>
