<svg width="258" height="81" viewBox="0 0 258 81" fill="none" xmlns="http://www.w3.org/2000/svg">
<path d="M10.723 41H2.81392L14.8651 6.09091H24.3764L36.4105 41H28.5014L19.7571 14.0682H19.4844L10.723 41ZM10.2287 27.2784H28.9105V33.0398H10.2287V27.2784ZM47.7372 25.8636V41H40.4759V14.8182H47.3963V19.4375H47.7031C48.2827 17.9148 49.2543 16.7102 50.6179 15.8239C51.9815 14.9261 53.6349 14.4773 55.5781 14.4773C57.3963 14.4773 58.9815 14.875 60.3338 15.6705C61.6861 16.4659 62.7372 17.6023 63.4872 19.0795C64.2372 20.5455 64.6122 22.2955 64.6122 24.3295V41H57.3509V25.625C57.3622 24.0227 56.9531 22.7727 56.1236 21.875C55.294 20.9659 54.152 20.5114 52.6974 20.5114C51.7202 20.5114 50.8565 20.7216 50.1065 21.142C49.3679 21.5625 48.7884 22.1761 48.3679 22.983C47.9588 23.7784 47.7486 24.7386 47.7372 25.8636ZM73.8807 50.8182C72.9602 50.8182 72.0966 50.7443 71.2898 50.5966C70.4943 50.4602 69.8352 50.2841 69.3125 50.0682L70.9489 44.6477C71.8011 44.9091 72.5682 45.0511 73.25 45.0739C73.9432 45.0966 74.5398 44.9375 75.0398 44.5966C75.5511 44.2557 75.9659 43.6761 76.2841 42.858L76.7102 41.75L67.3182 14.8182H74.9545L80.375 34.0455H80.6477L86.1193 14.8182H93.8068L83.6307 43.8295C83.142 45.2386 82.4773 46.4659 81.6364 47.5114C80.8068 48.5682 79.7557 49.3807 78.483 49.9489C77.2102 50.5284 75.6761 50.8182 73.8807 50.8182ZM111.602 14.8182V20.2727H95.4432V14.8182H111.602ZM99.142 41V12.9261C99.142 11.0284 99.5114 9.45454 100.25 8.20454C101 6.95454 102.023 6.01704 103.318 5.39204C104.614 4.76704 106.085 4.45454 107.733 4.45454C108.847 4.45454 109.864 4.53977 110.784 4.71023C111.716 4.88068 112.409 5.03409 112.864 5.17045L111.568 10.625C111.284 10.5341 110.932 10.4489 110.511 10.3693C110.102 10.2898 109.682 10.25 109.25 10.25C108.182 10.25 107.438 10.5 107.017 11C106.597 11.4886 106.386 12.1761 106.386 13.0625V41H99.142ZM116.038 41V14.8182H123.3V41H116.038ZM119.686 11.4432C118.607 11.4432 117.68 11.0852 116.908 10.3693C116.146 9.64204 115.766 8.77273 115.766 7.76136C115.766 6.76136 116.146 5.90341 116.908 5.1875C117.68 4.46023 118.607 4.09659 119.686 4.09659C120.766 4.09659 121.686 4.46023 122.447 5.1875C123.22 5.90341 123.607 6.76136 123.607 7.76136C123.607 8.77273 123.22 9.64204 122.447 10.3693C121.686 11.0852 120.766 11.4432 119.686 11.4432ZM143.043 14.8182V20.2727H127.276V14.8182H143.043ZM130.855 8.54545H138.116V32.9545C138.116 33.625 138.219 34.1477 138.423 34.5227C138.628 34.8864 138.912 35.142 139.276 35.2898C139.651 35.4375 140.082 35.5114 140.571 35.5114C140.912 35.5114 141.253 35.483 141.594 35.4261C141.935 35.358 142.196 35.3068 142.378 35.2727L143.52 40.6761C143.156 40.7898 142.645 40.9205 141.986 41.0682C141.327 41.2273 140.526 41.3239 139.582 41.358C137.832 41.4261 136.298 41.1932 134.98 40.6591C133.673 40.125 132.656 39.2955 131.929 38.1705C131.202 37.0455 130.844 35.625 130.855 33.9091V8.54545ZM155.034 25.8636V41H147.773V14.8182H154.693V19.4375H155C155.58 17.9148 156.551 16.7102 157.915 15.8239C159.278 14.9261 160.932 14.4773 162.875 14.4773C164.693 14.4773 166.278 14.875 167.631 15.6705C168.983 16.4659 170.034 17.6023 170.784 19.0795C171.534 20.5455 171.909 22.2955 171.909 24.3295V41H164.648V25.625C164.659 24.0227 164.25 22.7727 163.42 21.875C162.591 20.9659 161.449 20.5114 159.994 20.5114C159.017 20.5114 158.153 20.7216 157.403 21.142C156.665 21.5625 156.085 22.1761 155.665 22.983C155.256 23.7784 155.045 24.7386 155.034 25.8636ZM189.564 41.5114C186.871 41.5114 184.553 40.9659 182.609 39.875C180.678 38.7727 179.189 37.2159 178.143 35.2045C177.098 33.1818 176.575 30.7898 176.575 28.0284C176.575 25.3352 177.098 22.9716 178.143 20.9375C179.189 18.9034 180.661 17.3182 182.558 16.1818C184.467 15.0455 186.706 14.4773 189.274 14.4773C191.001 14.4773 192.609 14.7557 194.098 15.3125C195.598 15.858 196.905 16.6818 198.018 17.7841C199.143 18.8864 200.018 20.2727 200.643 21.9432C201.268 23.6023 201.581 25.5455 201.581 27.7727V29.767H179.473V25.267H194.746C194.746 24.2216 194.518 23.2955 194.064 22.4886C193.609 21.6818 192.979 21.0511 192.172 20.5966C191.376 20.1307 190.45 19.8977 189.393 19.8977C188.291 19.8977 187.314 20.1534 186.462 20.6648C185.621 21.1648 184.962 21.8409 184.484 22.6932C184.007 23.5341 183.763 24.4716 183.751 25.5057V29.7841C183.751 31.0795 183.99 32.1989 184.467 33.142C184.956 34.0852 185.643 34.8125 186.53 35.3239C187.416 35.8352 188.467 36.0909 189.683 36.0909C190.49 36.0909 191.229 35.9773 191.899 35.75C192.57 35.5227 193.143 35.1818 193.621 34.7273C194.098 34.2727 194.462 33.7159 194.712 33.0568L201.428 33.5C201.087 35.1136 200.388 36.5227 199.331 37.7273C198.286 38.9205 196.933 39.8523 195.274 40.5227C193.626 41.1818 191.723 41.5114 189.564 41.5114ZM228.104 22.2841L221.456 22.6932C221.342 22.125 221.098 21.6136 220.723 21.1591C220.348 20.6932 219.854 20.3239 219.24 20.0511C218.638 19.767 217.916 19.625 217.075 19.625C215.95 19.625 215.001 19.8636 214.229 20.3409C213.456 20.8068 213.07 21.4318 213.07 22.2159C213.07 22.8409 213.32 23.3693 213.82 23.8011C214.32 24.233 215.178 24.5795 216.393 24.8409L221.132 25.7955C223.678 26.3182 225.575 27.1591 226.825 28.3182C228.075 29.4773 228.7 31 228.7 32.8864C228.7 34.6023 228.195 36.108 227.183 37.4034C226.183 38.6989 224.808 39.7102 223.058 40.4375C221.32 41.1534 219.314 41.5114 217.041 41.5114C213.575 41.5114 210.814 40.7898 208.757 39.3466C206.712 37.892 205.513 35.9148 205.161 33.4148L212.303 33.0398C212.518 34.0966 213.041 34.9034 213.871 35.4602C214.7 36.0057 215.763 36.2784 217.058 36.2784C218.331 36.2784 219.354 36.0341 220.126 35.5455C220.911 35.0455 221.308 34.4034 221.32 33.6193C221.308 32.9602 221.03 32.4205 220.484 32C219.939 31.5682 219.098 31.2386 217.962 31.0114L213.428 30.108C210.871 29.5966 208.967 28.7102 207.717 27.4489C206.479 26.1875 205.859 24.5795 205.859 22.625C205.859 20.9432 206.314 19.4943 207.223 18.2784C208.143 17.0625 209.433 16.125 211.092 15.4659C212.763 14.8068 214.717 14.4773 216.956 14.4773C220.263 14.4773 222.865 15.1761 224.763 16.5739C226.672 17.9716 227.786 19.875 228.104 22.2841ZM255.057 22.2841L248.409 22.6932C248.295 22.125 248.051 21.6136 247.676 21.1591C247.301 20.6932 246.807 20.3239 246.193 20.0511C245.591 19.767 244.869 19.625 244.028 19.625C242.903 19.625 241.955 19.8636 241.182 20.3409C240.409 20.8068 240.023 21.4318 240.023 22.2159C240.023 22.8409 240.273 23.3693 240.773 23.8011C241.273 24.233 242.131 24.5795 243.347 24.8409L248.085 25.7955C250.631 26.3182 252.528 27.1591 253.778 28.3182C255.028 29.4773 255.653 31 255.653 32.8864C255.653 34.6023 255.148 36.108 254.136 37.4034C253.136 38.6989 251.761 39.7102 250.011 40.4375C248.273 41.1534 246.267 41.5114 243.994 41.5114C240.528 41.5114 237.767 40.7898 235.71 39.3466C233.665 37.892 232.466 35.9148 232.114 33.4148L239.256 33.0398C239.472 34.0966 239.994 34.9034 240.824 35.4602C241.653 36.0057 242.716 36.2784 244.011 36.2784C245.284 36.2784 246.307 36.0341 247.08 35.5455C247.864 35.0455 248.261 34.4034 248.273 33.6193C248.261 32.9602 247.983 32.4205 247.438 32C246.892 31.5682 246.051 31.2386 244.915 31.0114L240.381 30.108C237.824 29.5966 235.92 28.7102 234.67 27.4489C233.432 26.1875 232.812 24.5795 232.812 22.625C232.812 20.9432 233.267 19.4943 234.176 18.2784C235.097 17.0625 236.386 16.125 238.045 15.4659C239.716 14.8068 241.67 14.4773 243.909 14.4773C247.216 14.4773 249.818 15.1761 251.716 16.5739C253.625 17.9716 254.739 19.875 255.057 22.2841Z" fill="white"/>
<path d="M0.807384 62.7273H3.42493L7.41463 69.6701H7.57869L11.5684 62.7273H14.1859L8.6451 72.0043V78H6.34822V72.0043L0.807384 62.7273ZM19.7509 78.2312C18.677 78.2312 17.7399 77.9851 16.9394 77.4929C16.139 77.0007 15.5176 76.3121 15.0751 75.4272C14.6326 74.5423 14.4114 73.5082 14.4114 72.3249C14.4114 71.1367 14.6326 70.0977 15.0751 69.2077C15.5176 68.3178 16.139 67.6268 16.9394 67.1346C17.7399 66.6424 18.677 66.3963 19.7509 66.3963C20.8247 66.3963 21.7619 66.6424 22.5623 67.1346C23.3627 67.6268 23.9842 68.3178 24.4266 69.2077C24.8691 70.0977 25.0903 71.1367 25.0903 72.3249C25.0903 73.5082 24.8691 74.5423 24.4266 75.4272C23.9842 76.3121 23.3627 77.0007 22.5623 77.4929C21.7619 77.9851 20.8247 78.2312 19.7509 78.2312ZM19.7583 76.3594C20.4543 76.3594 21.031 76.1754 21.4884 75.8075C21.9458 75.4396 22.2839 74.9499 22.5026 74.3384C22.7264 73.7269 22.8382 73.0533 22.8382 72.3175C22.8382 71.5866 22.7264 70.9155 22.5026 70.304C22.2839 69.6875 21.9458 69.1928 21.4884 68.82C21.031 68.4471 20.4543 68.2607 19.7583 68.2607C19.0573 68.2607 18.4756 68.4471 18.0133 68.82C17.5559 69.1928 17.2153 69.6875 16.9916 70.304C16.7729 70.9155 16.6635 71.5866 16.6635 72.3175C16.6635 73.0533 16.7729 73.7269 16.9916 74.3384C17.2153 74.9499 17.5559 75.4396 18.0133 75.8075C18.4756 76.1754 19.0573 76.3594 19.7583 76.3594ZM35.4653 73.2496V66.5455H37.7025V78H35.51V76.0163H35.3907C35.1272 76.6278 34.7046 77.1374 34.123 77.5451C33.5463 77.9478 32.8279 78.1491 31.9678 78.1491C31.232 78.1491 30.5807 77.9876 30.0139 77.6644C29.4522 77.3363 29.0097 76.8516 28.6865 76.2102C28.3683 75.5689 28.2093 74.7759 28.2093 73.8313V66.5455H30.439V73.5629C30.439 74.3434 30.6553 74.9648 31.0878 75.4272C31.5203 75.8896 32.0821 76.1207 32.7732 76.1207C33.1908 76.1207 33.6059 76.0163 34.0186 75.8075C34.4362 75.5987 34.7817 75.283 35.0551 74.8604C35.3335 74.4379 35.4703 73.9009 35.4653 73.2496ZM41.3285 78V66.5455H43.4837V68.3651H43.603C43.8118 67.7486 44.1797 67.2638 44.7067 66.9109C45.2387 66.5529 45.8402 66.3739 46.5114 66.3739C46.6506 66.3739 46.8147 66.3789 47.0036 66.3888C47.1975 66.3988 47.3491 66.4112 47.4585 66.4261V68.5589C47.369 68.5341 47.2099 68.5067 46.9812 68.4769C46.7525 68.4421 46.5238 68.4247 46.2951 68.4247C45.7681 68.4247 45.2983 68.5366 44.8857 68.7603C44.478 68.979 44.1549 69.2848 43.9162 69.6776C43.6776 70.0653 43.5583 70.5078 43.5583 71.005V78H41.3285ZM56.3847 78V62.7273H58.689V69.3643H66.303V62.7273H68.6148V78H66.303V71.3406H58.689V78H56.3847ZM77.3584 78.2312C76.2299 78.2312 75.2579 77.9901 74.4426 77.5078C73.6322 77.0206 73.0058 76.337 72.5633 75.457C72.1258 74.5721 71.9071 73.5355 71.9071 72.3473C71.9071 71.174 72.1258 70.1399 72.5633 69.245C73.0058 68.3501 73.6223 67.6516 74.4128 67.1495C75.2082 66.6474 76.1379 66.3963 77.2018 66.3963C77.8481 66.3963 78.4745 66.5032 79.0811 66.717C79.6876 66.9308 80.232 67.2663 80.7142 67.7237C81.1965 68.1811 81.5768 68.7752 81.8552 69.506C82.1336 70.2319 82.2728 71.1143 82.2728 72.1534V72.9439H73.1674V71.2734H80.0878C80.0878 70.6868 79.9685 70.1673 79.7299 69.7148C79.4912 69.2575 79.1557 68.897 78.7231 68.6335C78.2956 68.37 77.7934 68.2383 77.2167 68.2383C76.5903 68.2383 76.0434 68.3924 75.5761 68.7006C75.1138 69.0039 74.7558 69.4016 74.5022 69.8938C74.2537 70.381 74.1294 70.9105 74.1294 71.4822V72.7873C74.1294 73.5529 74.2636 74.2042 74.5321 74.7411C74.8055 75.2781 75.1858 75.6882 75.6731 75.9716C76.1603 76.25 76.7295 76.3892 77.3808 76.3892C77.8034 76.3892 78.1887 76.3295 78.5367 76.2102C78.8847 76.0859 79.1855 75.902 79.439 75.6584C79.6926 75.4148 79.8865 75.114 80.0207 74.756L82.1312 75.1364C81.9621 75.7578 81.6588 76.3022 81.2213 76.7695C80.7888 77.2319 80.2444 77.5923 79.5882 77.8509C78.9369 78.1044 78.1937 78.2312 77.3584 78.2312ZM88.7103 78.2536C87.9844 78.2536 87.3282 78.1193 86.7415 77.8509C86.1549 77.5774 85.69 77.1822 85.347 76.6651C85.0089 76.1481 84.8399 75.5142 84.8399 74.7635C84.8399 74.1172 84.9642 73.5852 85.2128 73.1676C85.4614 72.75 85.7969 72.4194 86.2195 72.1758C86.6421 71.9322 87.1144 71.7482 87.6364 71.6239C88.1584 71.4996 88.6904 71.4052 89.2323 71.3406C89.9184 71.261 90.4752 71.1964 90.9028 71.1467C91.3303 71.092 91.641 71.005 91.8349 70.8857C92.0288 70.7663 92.1258 70.5724 92.1258 70.304V70.2518C92.1258 69.6005 91.9418 69.0959 91.5739 68.7379C91.211 68.38 90.6691 68.201 89.9482 68.201C89.1975 68.201 88.6059 68.3675 88.1734 68.7006C87.7458 69.0288 87.45 69.3942 87.2859 69.7969L85.1904 69.3196C85.439 68.6236 85.8019 68.0618 86.2792 67.6342C86.7614 67.2017 87.3158 66.8885 87.9422 66.6946C88.5686 66.4957 89.2273 66.3963 89.9184 66.3963C90.3758 66.3963 90.8605 66.451 91.3726 66.5604C91.8896 66.6648 92.3719 66.8587 92.8193 67.142C93.2717 67.4254 93.6421 67.8306 93.9305 68.3576C94.2188 68.8796 94.363 69.5582 94.363 70.3935V78H92.1854V76.4339H92.0959C91.9518 76.7223 91.7355 77.0057 91.4471 77.2841C91.1588 77.5625 90.7884 77.7937 90.336 77.9776C89.8836 78.1616 89.3417 78.2536 88.7103 78.2536ZM89.195 76.4638C89.8115 76.4638 90.3385 76.342 90.776 76.0984C91.2185 75.8548 91.554 75.5366 91.7827 75.1438C92.0164 74.7461 92.1332 74.321 92.1332 73.8686V72.392C92.0537 72.4716 91.8996 72.5462 91.6709 72.6158C91.4471 72.6804 91.1911 72.7376 90.9028 72.7873C90.6144 72.832 90.3335 72.8743 90.0601 72.9141C89.7866 72.9489 89.5579 72.9787 89.374 73.0036C88.9415 73.0582 88.5462 73.1502 88.1883 73.2795C87.8353 73.4087 87.5519 73.5952 87.3381 73.8388C87.1293 74.0774 87.0249 74.3956 87.0249 74.7933C87.0249 75.3452 87.2288 75.7628 87.6364 76.0462C88.0441 76.3246 88.5636 76.4638 89.195 76.4638ZM100.193 62.7273V78H97.9629V62.7273H100.193ZM109.169 66.5455V68.3352H102.913V66.5455H109.169ZM104.59 63.8011H106.82V74.6367C106.82 75.0692 106.885 75.3949 107.014 75.6136C107.143 75.8274 107.31 75.9741 107.514 76.0536C107.723 76.1282 107.949 76.1655 108.192 76.1655C108.371 76.1655 108.528 76.1531 108.662 76.1282C108.796 76.1033 108.901 76.0835 108.975 76.0685L109.378 77.9105C109.249 77.9602 109.065 78.0099 108.826 78.0597C108.588 78.1143 108.289 78.1442 107.931 78.1491C107.345 78.1591 106.798 78.0547 106.291 77.8359C105.784 77.6172 105.374 77.2791 105.06 76.8217C104.747 76.3643 104.59 75.7901 104.59 75.0991V63.8011ZM114.742 71.1989V78H112.512V62.7273H114.712V68.4098H114.854C115.122 67.7933 115.532 67.3036 116.084 66.9407C116.636 66.5778 117.357 66.3963 118.247 66.3963C119.032 66.3963 119.718 66.5579 120.305 66.881C120.897 67.2042 121.354 67.6864 121.677 68.3278C122.005 68.9641 122.169 69.7596 122.169 70.7141V78H119.94V70.9826C119.94 70.1424 119.723 69.4911 119.291 69.0288C118.858 68.5614 118.257 68.3278 117.486 68.3278C116.959 68.3278 116.487 68.4396 116.069 68.6634C115.656 68.8871 115.331 69.2152 115.092 69.6477C114.859 70.0753 114.742 70.5923 114.742 71.1989ZM140.471 66.7393C140.392 66.0334 140.064 65.4865 139.487 65.0987C138.91 64.706 138.184 64.5096 137.309 64.5096C136.683 64.5096 136.141 64.609 135.684 64.8079C135.226 65.0018 134.871 65.2702 134.617 65.6133C134.369 65.9513 134.244 66.3366 134.244 66.7692C134.244 67.1321 134.329 67.4453 134.498 67.7088C134.672 67.9723 134.898 68.1935 135.177 68.3725C135.46 68.5465 135.763 68.6932 136.086 68.8125C136.409 68.9268 136.72 69.0213 137.018 69.0959L138.51 69.4837C138.997 69.603 139.497 69.7646 140.009 69.9684C140.521 70.1722 140.996 70.4407 141.433 70.7738C141.871 71.1069 142.224 71.5195 142.492 72.0117C142.766 72.5039 142.902 73.093 142.902 73.7791C142.902 74.6442 142.679 75.4123 142.231 76.0835C141.789 76.7546 141.145 77.2841 140.3 77.6719C139.46 78.0597 138.443 78.2536 137.25 78.2536C136.106 78.2536 135.117 78.0721 134.282 77.7092C133.446 77.3462 132.793 76.8317 132.32 76.1655C131.848 75.4943 131.587 74.6989 131.537 73.7791H133.849C133.894 74.331 134.073 74.7908 134.386 75.1587C134.704 75.5217 135.109 75.7926 135.602 75.9716C136.099 76.1456 136.643 76.2326 137.235 76.2326C137.886 76.2326 138.465 76.1307 138.972 75.9268C139.484 75.718 139.887 75.4297 140.18 75.0618C140.474 74.6889 140.62 74.2539 140.62 73.7567C140.62 73.3043 140.491 72.9339 140.233 72.6456C139.979 72.3572 139.634 72.1186 139.196 71.9297C138.764 71.7408 138.274 71.5742 137.727 71.43L135.922 70.9379C134.699 70.6048 133.73 70.1151 133.014 69.4688C132.303 68.8224 131.947 67.9673 131.947 66.9034C131.947 66.0234 132.186 65.2553 132.663 64.5991C133.141 63.9428 133.787 63.4332 134.602 63.0703C135.418 62.7024 136.337 62.5185 137.362 62.5185C138.396 62.5185 139.308 62.6999 140.098 63.0629C140.894 63.4258 141.52 63.9254 141.978 64.5618C142.435 65.1932 142.674 65.919 142.694 66.7393H140.471ZM151.454 66.5455V68.3352H145.197V66.5455H151.454ZM146.875 63.8011H149.105V74.6367C149.105 75.0692 149.17 75.3949 149.299 75.6136C149.428 75.8274 149.595 75.9741 149.798 76.0536C150.007 76.1282 150.233 76.1655 150.477 76.1655C150.656 76.1655 150.813 76.1531 150.947 76.1282C151.081 76.1033 151.186 76.0835 151.26 76.0685L151.663 77.9105C151.534 77.9602 151.35 78.0099 151.111 78.0597C150.872 78.1143 150.574 78.1442 150.216 78.1491C149.629 78.1591 149.083 78.0547 148.575 77.8359C148.068 77.6172 147.658 77.2791 147.345 76.8217C147.032 76.3643 146.875 75.7901 146.875 75.0991V63.8011ZM157.884 78.2536C157.158 78.2536 156.502 78.1193 155.915 77.8509C155.329 77.5774 154.864 77.1822 154.521 76.6651C154.183 76.1481 154.014 75.5142 154.014 74.7635C154.014 74.1172 154.138 73.5852 154.386 73.1676C154.635 72.75 154.971 72.4194 155.393 72.1758C155.816 71.9322 156.288 71.7482 156.81 71.6239C157.332 71.4996 157.864 71.4052 158.406 71.3406C159.092 71.261 159.649 71.1964 160.076 71.1467C160.504 71.092 160.815 71.005 161.009 70.8857C161.202 70.7663 161.299 70.5724 161.299 70.304V70.2518C161.299 69.6005 161.115 69.0959 160.748 68.7379C160.385 68.38 159.843 68.201 159.122 68.201C158.371 68.201 157.78 68.3675 157.347 68.7006C156.919 69.0288 156.624 69.3942 156.46 69.7969L154.364 69.3196C154.613 68.6236 154.976 68.0618 155.453 67.6342C155.935 67.2017 156.489 66.8885 157.116 66.6946C157.742 66.4957 158.401 66.3963 159.092 66.3963C159.549 66.3963 160.034 66.451 160.546 66.5604C161.063 66.6648 161.546 66.8587 161.993 67.142C162.445 67.4254 162.816 67.8306 163.104 68.3576C163.392 68.8796 163.537 69.5582 163.537 70.3935V78H161.359V76.4339H161.27C161.125 76.7223 160.909 77.0057 160.621 77.2841C160.332 77.5625 159.962 77.7937 159.51 77.9776C159.057 78.1616 158.515 78.2536 157.884 78.2536ZM158.369 76.4638C158.985 76.4638 159.512 76.342 159.95 76.0984C160.392 75.8548 160.728 75.5366 160.956 75.1438C161.19 74.7461 161.307 74.321 161.307 73.8686V72.392C161.227 72.4716 161.073 72.5462 160.845 72.6158C160.621 72.6804 160.365 72.7376 160.076 72.7873C159.788 72.832 159.507 72.8743 159.234 72.9141C158.96 72.9489 158.732 72.9787 158.548 73.0036C158.115 73.0582 157.72 73.1502 157.362 73.2795C157.009 73.4087 156.726 73.5952 156.512 73.8388C156.303 74.0774 156.199 74.3956 156.199 74.7933C156.199 75.3452 156.402 75.7628 156.81 76.0462C157.218 76.3246 157.737 76.4638 158.369 76.4638ZM167.137 78V66.5455H169.292V68.3651H169.411C169.62 67.7486 169.988 67.2638 170.515 66.9109C171.047 66.5529 171.648 66.3739 172.319 66.3739C172.459 66.3739 172.623 66.3789 172.812 66.3888C173.006 66.3988 173.157 66.4112 173.267 66.4261V68.5589C173.177 68.5341 173.018 68.5067 172.789 68.4769C172.561 68.4421 172.332 68.4247 172.103 68.4247C171.576 68.4247 171.106 68.5366 170.694 68.7603C170.286 68.979 169.963 69.2848 169.724 69.6776C169.486 70.0653 169.366 70.5078 169.366 71.005V78H167.137ZM181.85 66.5455V68.3352H175.593V66.5455H181.85ZM177.271 63.8011H179.501V74.6367C179.501 75.0692 179.565 75.3949 179.695 75.6136C179.824 75.8274 179.99 75.9741 180.194 76.0536C180.403 76.1282 180.629 76.1655 180.873 76.1655C181.052 76.1655 181.208 76.1531 181.343 76.1282C181.477 76.1033 181.581 76.0835 181.656 76.0685L182.059 77.9105C181.929 77.9602 181.745 78.0099 181.507 78.0597C181.268 78.1143 180.97 78.1442 180.612 78.1491C180.025 78.1591 179.478 78.0547 178.971 77.8359C178.464 77.6172 178.054 77.2791 177.741 76.8217C177.428 76.3643 177.271 75.7901 177.271 75.0991V63.8011ZM193.345 69.342L191.324 69.6999C191.24 69.4414 191.106 69.1953 190.922 68.9616C190.743 68.728 190.499 68.5366 190.191 68.3874C189.883 68.2383 189.497 68.1637 189.035 68.1637C188.403 68.1637 187.876 68.3054 187.454 68.5888C187.031 68.8672 186.82 69.2276 186.82 69.6701C186.82 70.0529 186.962 70.3612 187.245 70.5948C187.528 70.8285 187.986 71.0199 188.617 71.169L190.437 71.5866C191.491 71.8303 192.276 72.2056 192.793 72.7127C193.31 73.2198 193.569 73.8786 193.569 74.6889C193.569 75.375 193.37 75.9865 192.972 76.5234C192.58 77.0554 192.03 77.473 191.324 77.7763C190.623 78.0795 189.81 78.2312 188.886 78.2312C187.603 78.2312 186.557 77.9577 185.746 77.4109C184.936 76.859 184.439 76.076 184.255 75.0618L186.41 74.7337C186.544 75.2955 186.82 75.7205 187.238 76.0089C187.655 76.2923 188.2 76.4339 188.871 76.4339C189.602 76.4339 190.186 76.2823 190.623 75.979C191.061 75.6708 191.28 75.2955 191.28 74.853C191.28 74.495 191.145 74.1942 190.877 73.9506C190.613 73.707 190.208 73.5231 189.661 73.3988L187.722 72.9737C186.653 72.7301 185.863 72.3423 185.351 71.8104C184.844 71.2784 184.59 70.6048 184.59 69.7894C184.59 69.1133 184.779 68.5217 185.157 68.0146C185.535 67.5075 186.057 67.1122 186.723 66.8288C187.389 66.5405 188.152 66.3963 189.013 66.3963C190.25 66.3963 191.225 66.6648 191.936 67.2017C192.647 67.7337 193.117 68.4471 193.345 69.342ZM203.017 78V62.7273H205.322V69.3643H212.936V62.7273H215.247V78H212.936V71.3406H205.322V78H203.017ZM223.991 78.2312C222.862 78.2312 221.89 77.9901 221.075 77.5078C220.265 77.0206 219.638 76.337 219.196 75.457C218.758 74.5721 218.54 73.5355 218.54 72.3473C218.54 71.174 218.758 70.1399 219.196 69.245C219.638 68.3501 220.255 67.6516 221.045 67.1495C221.841 66.6474 222.77 66.3963 223.834 66.3963C224.481 66.3963 225.107 66.5032 225.714 66.717C226.32 66.9308 226.865 67.2663 227.347 67.7237C227.829 68.1811 228.209 68.7752 228.488 69.506C228.766 70.2319 228.905 71.1143 228.905 72.1534V72.9439H219.8V71.2734H226.72C226.72 70.6868 226.601 70.1673 226.362 69.7148C226.124 69.2575 225.788 68.897 225.356 68.6335C224.928 68.37 224.426 68.2383 223.849 68.2383C223.223 68.2383 222.676 68.3924 222.209 68.7006C221.746 69.0039 221.388 69.4016 221.135 69.8938C220.886 70.381 220.762 70.9105 220.762 71.4822V72.7873C220.762 73.5529 220.896 74.2042 221.165 74.7411C221.438 75.2781 221.818 75.6882 222.306 75.9716C222.793 76.25 223.362 76.3892 224.013 76.3892C224.436 76.3892 224.821 76.3295 225.169 76.2102C225.517 76.0859 225.818 75.902 226.072 75.6584C226.325 75.4148 226.519 75.114 226.653 74.756L228.764 75.1364C228.595 75.7578 228.291 76.3022 227.854 76.7695C227.421 77.2319 226.877 77.5923 226.221 77.8509C225.569 78.1044 224.826 78.2312 223.991 78.2312ZM232.009 78V66.5455H234.165V68.3651H234.284C234.493 67.7486 234.861 67.2638 235.388 66.9109C235.919 66.5529 236.521 66.3739 237.192 66.3739C237.331 66.3739 237.495 66.3789 237.684 66.3888C237.878 66.3988 238.03 66.4112 238.139 66.4261V68.5589C238.05 68.5341 237.891 68.5067 237.662 68.4769C237.433 68.4421 237.205 68.4247 236.976 68.4247C236.449 68.4247 235.979 68.5366 235.566 68.7603C235.159 68.979 234.836 69.2848 234.597 69.6776C234.358 70.0653 234.239 70.5078 234.239 71.005V78H232.009ZM245.226 78.2312C244.097 78.2312 243.125 77.9901 242.31 77.5078C241.499 77.0206 240.873 76.337 240.43 75.457C239.993 74.5721 239.774 73.5355 239.774 72.3473C239.774 71.174 239.993 70.1399 240.43 69.245C240.873 68.3501 241.489 67.6516 242.28 67.1495C243.075 66.6474 244.005 66.3963 245.069 66.3963C245.715 66.3963 246.342 66.5032 246.948 66.717C247.555 66.9308 248.099 67.2663 248.581 67.7237C249.064 68.1811 249.444 68.7752 249.722 69.506C250.001 70.2319 250.14 71.1143 250.14 72.1534V72.9439H241.034V71.2734H247.955C247.955 70.6868 247.836 70.1673 247.597 69.7148C247.358 69.2575 247.023 68.897 246.59 68.6335C246.163 68.37 245.661 68.2383 245.084 68.2383C244.457 68.2383 243.911 68.3924 243.443 68.7006C242.981 69.0039 242.623 69.4016 242.369 69.8938C242.121 70.381 241.996 70.9105 241.996 71.4822V72.7873C241.996 73.5529 242.131 74.2042 242.399 74.7411C242.673 75.2781 243.053 75.6882 243.54 75.9716C244.027 76.25 244.597 76.3892 245.248 76.3892C245.67 76.3892 246.056 76.3295 246.404 76.2102C246.752 76.0859 247.053 75.902 247.306 75.6584C247.56 75.4148 247.754 75.114 247.888 74.756L249.998 75.1364C249.829 75.7578 249.526 76.3022 249.088 76.7695C248.656 77.2319 248.112 77.5923 247.455 77.8509C246.804 78.1044 246.061 78.2312 245.226 78.2312ZM254.713 78.1417C254.305 78.1417 253.955 77.9975 253.662 77.7092C253.368 77.4158 253.222 77.0629 253.222 76.6502C253.222 76.2425 253.368 75.8945 253.662 75.6062C253.955 75.3129 254.305 75.1662 254.713 75.1662C255.121 75.1662 255.471 75.3129 255.765 75.6062C256.058 75.8945 256.205 76.2425 256.205 76.6502C256.205 76.9237 256.135 77.1747 255.996 77.4034C255.861 77.6271 255.683 77.8061 255.459 77.9403C255.235 78.0746 254.986 78.1417 254.713 78.1417Z" fill="#D9D9D9"/>
</svg>
