<svg width="317" height="60" viewBox="0 0 317 60" fill="none" xmlns="http://www.w3.org/2000/svg">
<path d="M10.5288 47H0.642401L15.7063 3.36364H27.5955L42.6381 47H32.7518L21.8214 13.3352H21.4805L10.5288 47ZM9.91087 29.848H33.2631V37.0497H9.91087V29.848ZM56.7965 28.0795V47H47.7198V14.2727H56.3704V20.0469H56.7539C57.4783 18.1435 58.6928 16.6378 60.3974 15.5298C62.1019 14.4077 64.1687 13.8466 66.5977 13.8466C68.8704 13.8466 70.8519 14.3437 72.5423 15.3381C74.2326 16.3324 75.5465 17.7528 76.484 19.5994C77.4215 21.4318 77.8903 23.6193 77.8903 26.1619V47H68.8136V27.7812C68.8278 25.7784 68.3164 24.2159 67.2795 23.0938C66.2425 21.9574 64.815 21.3892 62.9968 21.3892C61.7752 21.3892 60.6957 21.652 59.7582 22.1776C58.8349 22.7031 58.1104 23.4702 57.5849 24.4787C57.0735 25.473 56.8107 26.6733 56.7965 28.0795ZM89.4759 59.2727C88.3253 59.2727 87.2457 59.1804 86.2372 58.9957C85.2429 58.8253 84.419 58.6051 83.7656 58.3352L85.8111 51.5597C86.8764 51.8864 87.8352 52.0639 88.6875 52.0923C89.554 52.1207 90.2997 51.9219 90.9247 51.4957C91.5639 51.0696 92.0824 50.3452 92.4801 49.3224L93.0128 47.9375L81.2727 14.2727H90.8182L97.5938 38.3068H97.9347L104.774 14.2727H114.384L101.663 50.5369C101.053 52.2983 100.222 53.8324 99.1705 55.1392C98.1335 56.4602 96.8196 57.4759 95.2287 58.1861C93.6378 58.9105 91.7202 59.2727 89.4759 59.2727ZM136.628 14.2727V21.0909H116.429V14.2727H136.628ZM121.053 47V11.9077C121.053 9.53551 121.514 7.56818 122.438 6.00568C123.375 4.44318 124.653 3.2713 126.273 2.49005C127.892 1.7088 129.732 1.31818 131.791 1.31818C133.183 1.31818 134.455 1.42471 135.605 1.63778C136.77 1.85085 137.636 2.04261 138.205 2.21307L136.585 9.03125C136.23 8.91761 135.79 8.81108 135.264 8.71165C134.753 8.61222 134.227 8.5625 133.688 8.5625C132.352 8.5625 131.422 8.875 130.896 9.5C130.371 10.1108 130.108 10.9702 130.108 12.0781V47H121.053ZM142.173 47V14.2727H151.25V47H142.173ZM146.733 10.054C145.383 10.054 144.225 9.60653 143.26 8.71165C142.308 7.80256 141.832 6.71591 141.832 5.4517C141.832 4.2017 142.308 3.12926 143.26 2.23438C144.225 1.32528 145.383 0.870736 146.733 0.870736C148.082 0.870736 149.233 1.32528 150.184 2.23438C151.15 3.12926 151.633 4.2017 151.633 5.4517C151.633 6.71591 151.15 7.80256 150.184 8.71165C149.233 9.60653 148.082 10.054 146.733 10.054ZM175.928 14.2727V21.0909H156.219V14.2727H175.928ZM160.694 6.43182H169.771V36.9432C169.771 37.7812 169.898 38.4347 170.154 38.9034C170.41 39.358 170.765 39.6776 171.219 39.8622C171.688 40.0469 172.228 40.1392 172.839 40.1392C173.265 40.1392 173.691 40.1037 174.117 40.0327C174.543 39.9474 174.87 39.8835 175.097 39.8409L176.525 46.5952C176.07 46.7372 175.431 46.9006 174.607 47.0852C173.783 47.2841 172.782 47.4048 171.603 47.4474C169.415 47.5327 167.498 47.2415 165.85 46.5739C164.217 45.9062 162.945 44.8693 162.036 43.4631C161.127 42.0568 160.68 40.2812 160.694 38.1364V6.43182ZM190.918 28.0795V47H181.841V14.2727H190.491V20.0469H190.875C191.599 18.1435 192.814 16.6378 194.518 15.5298C196.223 14.4077 198.29 13.8466 200.719 13.8466C202.991 13.8466 204.973 14.3437 206.663 15.3381C208.354 16.3324 209.668 17.7528 210.605 19.5994C211.543 21.4318 212.011 23.6193 212.011 26.1619V47H202.935V27.7812C202.949 25.7784 202.438 24.2159 201.401 23.0938C200.364 21.9574 198.936 21.3892 197.118 21.3892C195.896 21.3892 194.817 21.652 193.879 22.1776C192.956 22.7031 192.232 23.4702 191.706 24.4787C191.195 25.473 190.932 26.6733 190.918 28.0795ZM234.08 47.6392C230.713 47.6392 227.816 46.9574 225.387 45.5938C222.972 44.2159 221.111 42.2699 219.804 39.7557C218.498 37.2273 217.844 34.2372 217.844 30.7855C217.844 27.419 218.498 24.4645 219.804 21.9219C221.111 19.3793 222.951 17.3977 225.323 15.9773C227.709 14.5568 230.507 13.8466 233.718 13.8466C235.877 13.8466 237.887 14.1946 239.748 14.8906C241.623 15.5724 243.256 16.6023 244.648 17.9801C246.054 19.358 247.148 21.0909 247.929 23.179C248.711 25.2528 249.101 27.6818 249.101 30.4659V32.9588H221.466V27.3338H240.557C240.557 26.027 240.273 24.8693 239.705 23.8608C239.137 22.8523 238.348 22.0639 237.34 21.4957C236.346 20.9134 235.188 20.6222 233.867 20.6222C232.489 20.6222 231.267 20.9418 230.202 21.581C229.151 22.206 228.327 23.0511 227.73 24.1165C227.134 25.1676 226.828 26.3395 226.814 27.6321V32.9801C226.814 34.5994 227.113 35.9986 227.709 37.1776C228.32 38.3565 229.179 39.2656 230.287 39.9048C231.395 40.544 232.709 40.8636 234.229 40.8636C235.238 40.8636 236.161 40.7216 236.999 40.4375C237.837 40.1534 238.554 39.7273 239.151 39.1591C239.748 38.5909 240.202 37.8949 240.515 37.071L248.909 37.625C248.483 39.642 247.61 41.4034 246.289 42.9091C244.982 44.4006 243.292 45.5653 241.218 46.4034C239.158 47.2273 236.779 47.6392 234.08 47.6392ZM282.255 23.6051L273.945 24.1165C273.803 23.4062 273.498 22.767 273.029 22.1989C272.56 21.6165 271.942 21.1548 271.175 20.8139C270.422 20.4588 269.52 20.2812 268.469 20.2812C267.063 20.2812 265.877 20.5795 264.911 21.1761C263.945 21.7585 263.462 22.5398 263.462 23.5199C263.462 24.3011 263.775 24.9616 264.4 25.5014C265.025 26.0412 266.097 26.4744 267.617 26.8011L273.54 27.9943C276.722 28.6477 279.094 29.6989 280.657 31.1477C282.219 32.5966 283 34.5 283 36.858C283 39.0028 282.368 40.8849 281.104 42.5043C279.854 44.1236 278.135 45.3878 275.948 46.2969C273.775 47.1918 271.267 47.6392 268.426 47.6392C264.094 47.6392 260.642 46.7372 258.071 44.9332C255.515 43.1151 254.016 40.6435 253.576 37.5185L262.503 37.0497C262.773 38.3707 263.426 39.3793 264.463 40.0753C265.5 40.7571 266.828 41.098 268.448 41.098C270.039 41.098 271.317 40.7926 272.283 40.1818C273.263 39.5568 273.76 38.7543 273.775 37.7741C273.76 36.9503 273.412 36.2756 272.73 35.75C272.049 35.2102 270.998 34.7983 269.577 34.5142L263.909 33.3849C260.713 32.7457 258.334 31.6378 256.772 30.0611C255.223 28.4844 254.449 26.4744 254.449 24.0312C254.449 21.929 255.017 20.1179 256.154 18.598C257.304 17.0781 258.917 15.9063 260.99 15.0824C263.078 14.2585 265.522 13.8466 268.32 13.8466C272.453 13.8466 275.706 14.7202 278.078 16.4673C280.465 18.2145 281.857 20.5937 282.255 23.6051ZM315.946 23.6051L307.636 24.1165C307.494 23.4062 307.189 22.767 306.72 22.1989C306.251 21.6165 305.634 21.1548 304.866 20.8139C304.114 20.4588 303.212 20.2812 302.161 20.2812C300.754 20.2812 299.568 20.5795 298.602 21.1761C297.636 21.7585 297.153 22.5398 297.153 23.5199C297.153 24.3011 297.466 24.9616 298.091 25.5014C298.716 26.0412 299.788 26.4744 301.308 26.8011L307.232 27.9943C310.413 28.6477 312.786 29.6989 314.348 31.1477C315.911 32.5966 316.692 34.5 316.692 36.858C316.692 39.0028 316.06 40.8849 314.795 42.5043C313.545 44.1236 311.827 45.3878 309.639 46.2969C307.466 47.1918 304.959 47.6392 302.118 47.6392C297.786 47.6392 294.334 46.7372 291.763 44.9332C289.206 43.1151 287.707 40.6435 287.267 37.5185L296.195 37.0497C296.464 38.3707 297.118 39.3793 298.155 40.0753C299.192 40.7571 300.52 41.098 302.139 41.098C303.73 41.098 305.009 40.7926 305.974 40.1818C306.955 39.5568 307.452 38.7543 307.466 37.7741C307.452 36.9503 307.104 36.2756 306.422 35.75C305.74 35.2102 304.689 34.7983 303.268 34.5142L297.601 33.3849C294.405 32.7457 292.026 31.6378 290.463 30.0611C288.915 28.4844 288.141 26.4744 288.141 24.0312C288.141 21.929 288.709 20.1179 289.845 18.598C290.996 17.0781 292.608 15.9063 294.682 15.0824C296.77 14.2585 299.213 13.8466 302.011 13.8466C306.145 13.8466 309.398 14.7202 311.77 16.4673C314.156 18.2145 315.548 20.5937 315.946 23.6051Z" fill="#333333"/>
</svg>
