<svg width="317" height="21" viewBox="0 0 317 21" fill="none" xmlns="http://www.w3.org/2000/svg">
<path d="M0.785326 1.09091H4.02609L8.96572 9.68679H9.16885L14.1085 1.09091H17.3492L10.4892 12.5767V20H7.64541V12.5767L0.785326 1.09091ZM24.2392 20.2862C22.9096 20.2862 21.7493 19.9815 20.7583 19.3722C19.7673 18.7628 18.9979 17.9103 18.4501 16.8146C17.9023 15.719 17.6284 14.4387 17.6284 12.9737C17.6284 11.5026 17.9023 10.2161 18.4501 9.11435C18.9979 8.01255 19.7673 7.15696 20.7583 6.54759C21.7493 5.93821 22.9096 5.63352 24.2392 5.63352C25.5687 5.63352 26.729 5.93821 27.72 6.54759C28.711 7.15696 29.4804 8.01255 30.0282 9.11435C30.576 10.2161 30.85 11.5026 30.85 12.9737C30.85 14.4387 30.576 15.719 30.0282 16.8146C29.4804 17.9103 28.711 18.7628 27.72 19.3722C26.729 19.9815 25.5687 20.2862 24.2392 20.2862ZM24.2484 17.9688C25.1101 17.9688 25.8241 17.741 26.3904 17.2855C26.9567 16.83 27.3753 16.2237 27.6461 15.4666C27.9231 14.7095 28.0616 13.8755 28.0616 12.9645C28.0616 12.0597 27.9231 11.2287 27.6461 10.4716C27.3753 9.70833 26.9567 9.09588 26.3904 8.63423C25.8241 8.17258 25.1101 7.94176 24.2484 7.94176C23.3805 7.94176 22.6603 8.17258 22.0879 8.63423C21.5216 9.09588 21.0999 9.70833 20.823 10.4716C20.5521 11.2287 20.4167 12.0597 20.4167 12.9645C20.4167 13.8755 20.5521 14.7095 20.823 15.4666C21.0999 16.2237 21.5216 16.83 22.0879 17.2855C22.6603 17.741 23.3805 17.9688 24.2484 17.9688ZM43.6951 14.1186V5.81818H46.465V20H43.7505V17.544H43.6028C43.2766 18.3011 42.7534 18.9321 42.0332 19.4368C41.3192 19.9354 40.4297 20.1847 39.3649 20.1847C38.4539 20.1847 37.6475 19.9846 36.9458 19.5845C36.2503 19.1783 35.7025 18.5781 35.3024 17.7841C34.9084 16.9901 34.7114 16.0083 34.7114 14.8388V5.81818H37.4721V14.5064C37.4721 15.4728 37.7399 16.2422 38.2754 16.8146C38.8109 17.3871 39.5064 17.6733 40.362 17.6733C40.8791 17.6733 41.393 17.544 41.9039 17.2855C42.421 17.027 42.8488 16.6361 43.1873 16.1129C43.532 15.5897 43.7013 14.925 43.6951 14.1186ZM50.9543 20V5.81818H53.6227V8.07102H53.7704C54.0289 7.30776 54.4844 6.70762 55.1369 6.2706C55.7955 5.82741 56.5403 5.60582 57.3712 5.60582C57.5436 5.60582 57.7467 5.61198 57.9806 5.62429C58.2207 5.6366 58.4084 5.65199 58.5438 5.67045V8.31108C58.433 8.2803 58.2361 8.24645 57.9529 8.20952C57.6698 8.16643 57.3866 8.14489 57.1035 8.14489C56.451 8.14489 55.8693 8.28338 55.3585 8.56037C54.8537 8.8312 54.4536 9.20975 54.1582 9.69602C53.8627 10.1761 53.715 10.724 53.715 11.3395V20H50.9543ZM69.5953 20V1.09091H72.4483V9.30824H81.8751V1.09091H84.7374V20H81.8751V11.755H72.4483V20H69.5953ZM95.5628 20.2862C94.1656 20.2862 92.9622 19.9877 91.9527 19.3906C90.9494 18.7874 90.1738 17.9411 89.626 16.8516C89.0843 15.7559 88.8135 14.4725 88.8135 13.0014C88.8135 11.5488 89.0843 10.2685 89.626 9.16051C90.1738 8.05256 90.9371 7.18774 91.9158 6.56605C92.9006 5.94437 94.0517 5.63352 95.3689 5.63352C96.1691 5.63352 96.9447 5.76586 97.6956 6.03054C98.4466 6.29522 99.1206 6.7107 99.7176 7.27699C100.315 7.84328 100.786 8.57883 101.13 9.48366C101.475 10.3823 101.647 11.4749 101.647 12.7614V13.7401H90.3739V11.6719H98.9421C98.9421 10.9455 98.7943 10.3023 98.4989 9.74219C98.2034 9.1759 97.7879 8.72964 97.2524 8.40341C96.7231 8.07718 96.1014 7.91406 95.3874 7.91406C94.6118 7.91406 93.9347 8.10488 93.3561 8.48651C92.7837 8.86198 92.3405 9.3544 92.0266 9.96378C91.7188 10.567 91.5649 11.2225 91.5649 11.9304V13.5462C91.5649 14.4941 91.7311 15.3004 92.0635 15.9652C92.4021 16.63 92.8729 17.1378 93.4762 17.4886C94.0794 17.8333 94.7842 18.0057 95.5905 18.0057C96.1137 18.0057 96.5907 17.9318 97.0216 17.7841C97.4525 17.6302 97.8249 17.4025 98.1388 17.1009C98.4527 16.7992 98.6928 16.4268 98.859 15.9837L101.472 16.4545C101.263 17.224 100.887 17.898 100.345 18.4766C99.81 19.049 99.136 19.4953 98.3235 19.8153C97.5171 20.1293 96.5969 20.2862 95.5628 20.2862ZM109.617 20.3139C108.719 20.3139 107.906 20.1477 107.18 19.8153C106.454 19.4768 105.878 18.9875 105.453 18.3473C105.035 17.7071 104.826 16.9223 104.826 15.9929C104.826 15.1927 104.979 14.5341 105.287 14.017C105.595 13.5 106.01 13.0907 106.534 12.7891C107.057 12.4875 107.642 12.2597 108.288 12.1058C108.934 11.9519 109.593 11.835 110.264 11.755C111.113 11.6565 111.803 11.5765 112.332 11.5149C112.861 11.4472 113.246 11.3395 113.486 11.1918C113.726 11.044 113.846 10.804 113.846 10.4716V10.407C113.846 9.60062 113.618 8.97585 113.163 8.53267C112.714 8.08949 112.043 7.8679 111.15 7.8679C110.221 7.8679 109.488 8.0741 108.953 8.48651C108.423 8.89276 108.057 9.34517 107.854 9.84375L105.26 9.25284C105.567 8.3911 106.017 7.69555 106.608 7.16619C107.205 6.63068 107.891 6.2429 108.666 6.00284C109.442 5.75663 110.258 5.63352 111.113 5.63352C111.68 5.63352 112.28 5.70123 112.914 5.83665C113.554 5.96591 114.151 6.20597 114.705 6.55682C115.265 6.90767 115.724 7.40933 116.081 8.06179C116.438 8.7081 116.616 9.5483 116.616 10.5824V20H113.92V18.0611H113.809C113.631 18.4181 113.363 18.7689 113.006 19.1136C112.649 19.4583 112.19 19.7446 111.63 19.9723C111.07 20.2 110.399 20.3139 109.617 20.3139ZM110.218 18.098C110.981 18.098 111.633 17.9472 112.175 17.6456C112.723 17.344 113.138 16.95 113.421 16.4638C113.711 15.9714 113.855 15.4451 113.855 14.8849V13.0568C113.757 13.1553 113.566 13.2476 113.283 13.3338C113.006 13.4138 112.689 13.4846 112.332 13.5462C111.975 13.6016 111.627 13.6539 111.289 13.7031C110.95 13.7462 110.667 13.7831 110.439 13.8139C109.904 13.8816 109.414 13.9955 108.971 14.1555C108.534 14.3156 108.183 14.5464 107.919 14.848C107.66 15.1435 107.531 15.5374 107.531 16.0298C107.531 16.7131 107.783 17.2301 108.288 17.581C108.793 17.9257 109.436 18.098 110.218 18.098ZM123.834 1.09091V20H121.073V1.09091H123.834ZM134.948 5.81818V8.03409H127.201V5.81818H134.948ZM129.279 2.42045H132.039V15.8359C132.039 16.3714 132.119 16.7746 132.279 17.0455C132.439 17.3101 132.646 17.4917 132.898 17.5902C133.157 17.6825 133.437 17.7287 133.738 17.7287C133.96 17.7287 134.154 17.7133 134.32 17.6825C134.486 17.6518 134.615 17.6271 134.708 17.6087L135.206 19.8892C135.046 19.9508 134.818 20.0123 134.523 20.0739C134.228 20.1416 133.858 20.1785 133.415 20.1847C132.689 20.197 132.012 20.0677 131.384 19.7969C130.756 19.526 130.248 19.1075 129.86 18.5412C129.473 17.9749 129.279 17.264 129.279 16.4084V2.42045ZM141.847 11.5795V20H139.086V1.09091H141.81V8.12642H141.985C142.318 7.36316 142.826 6.75686 143.509 6.30753C144.192 5.85819 145.085 5.63352 146.186 5.63352C147.159 5.63352 148.008 5.83357 148.735 6.23366C149.467 6.63376 150.033 7.23082 150.434 8.02486C150.84 8.81274 151.043 9.79759 151.043 10.9794V20H148.282V11.3118C148.282 10.2715 148.014 9.4652 147.479 8.89276C146.943 8.31416 146.199 8.02486 145.245 8.02486C144.592 8.02486 144.007 8.16335 143.49 8.44034C142.979 8.71733 142.576 9.12358 142.281 9.65909C141.992 10.1884 141.847 10.8286 141.847 11.5795ZM173.702 6.05824C173.604 5.18418 173.198 4.5071 172.484 4.02699C171.77 3.54072 170.871 3.29759 169.788 3.29759C169.012 3.29759 168.341 3.42069 167.775 3.6669C167.209 3.90696 166.769 4.23935 166.455 4.66406C166.147 5.08262 165.993 5.55966 165.993 6.09517C165.993 6.54451 166.098 6.93229 166.307 7.25852C166.522 7.58475 166.802 7.85866 167.147 8.08026C167.498 8.29569 167.873 8.47727 168.274 8.625C168.674 8.76657 169.058 8.88352 169.428 8.97585L171.274 9.45597C171.877 9.60369 172.496 9.80374 173.13 10.0561C173.764 10.3085 174.352 10.6409 174.894 11.0533C175.435 11.4657 175.872 11.9766 176.205 12.5859C176.543 13.1953 176.712 13.9247 176.712 14.7741C176.712 15.8452 176.435 16.7962 175.881 17.6271C175.334 18.4581 174.537 19.1136 173.49 19.5938C172.45 20.0739 171.191 20.3139 169.714 20.3139C168.298 20.3139 167.073 20.0893 166.039 19.6399C165.005 19.1906 164.196 18.5535 163.611 17.7287C163.026 16.8977 162.703 15.9129 162.641 14.7741H165.504C165.559 15.4574 165.781 16.0268 166.168 16.4822C166.562 16.9316 167.064 17.267 167.673 17.4886C168.289 17.7041 168.963 17.8118 169.695 17.8118C170.502 17.8118 171.219 17.6856 171.847 17.4332C172.481 17.1747 172.979 16.8177 173.342 16.3622C173.706 15.9006 173.887 15.362 173.887 14.7464C173.887 14.1863 173.727 13.7277 173.407 13.3707C173.093 13.0137 172.665 12.7183 172.124 12.4844C171.588 12.2505 170.982 12.0443 170.305 11.8658L168.07 11.2564C166.556 10.844 165.356 10.2377 164.47 9.4375C163.589 8.63731 163.149 7.5786 163.149 6.26136C163.149 5.17187 163.445 4.22088 164.036 3.40838C164.627 2.59588 165.427 1.96496 166.436 1.51562C167.446 1.06013 168.584 0.832386 169.852 0.832386C171.133 0.832386 172.262 1.05705 173.241 1.50639C174.226 1.95573 175.001 2.57434 175.568 3.36221C176.134 4.14394 176.429 5.04261 176.454 6.05824H173.702ZM187.3 5.81818V8.03409H179.554V5.81818H187.3ZM181.631 2.42045H184.392V15.8359C184.392 16.3714 184.472 16.7746 184.632 17.0455C184.792 17.3101 184.998 17.4917 185.25 17.5902C185.509 17.6825 185.789 17.7287 186.091 17.7287C186.312 17.7287 186.506 17.7133 186.672 17.6825C186.838 17.6518 186.968 17.6271 187.06 17.6087L187.559 19.8892C187.399 19.9508 187.171 20.0123 186.875 20.0739C186.58 20.1416 186.211 20.1785 185.767 20.1847C185.041 20.197 184.364 20.0677 183.736 19.7969C183.108 19.526 182.601 19.1075 182.213 18.5412C181.825 17.9749 181.631 17.264 181.631 16.4084V2.42045ZM195.261 20.3139C194.362 20.3139 193.55 20.1477 192.824 19.8153C192.097 19.4768 191.522 18.9875 191.097 18.3473C190.678 17.7071 190.469 16.9223 190.469 15.9929C190.469 15.1927 190.623 14.5341 190.931 14.017C191.239 13.5 191.654 13.0907 192.177 12.7891C192.7 12.4875 193.285 12.2597 193.932 12.1058C194.578 11.9519 195.236 11.835 195.907 11.755C196.757 11.6565 197.446 11.5765 197.976 11.5149C198.505 11.4472 198.89 11.3395 199.13 11.1918C199.37 11.044 199.49 10.804 199.49 10.4716V10.407C199.49 9.60062 199.262 8.97585 198.807 8.53267C198.357 8.08949 197.686 7.8679 196.794 7.8679C195.864 7.8679 195.132 8.0741 194.596 8.48651C194.067 8.89276 193.701 9.34517 193.498 9.84375L190.903 9.25284C191.211 8.3911 191.66 7.69555 192.251 7.16619C192.848 6.63068 193.535 6.2429 194.31 6.00284C195.086 5.75663 195.901 5.63352 196.757 5.63352C197.323 5.63352 197.923 5.70123 198.557 5.83665C199.197 5.96591 199.794 6.20597 200.348 6.55682C200.909 6.90767 201.367 7.40933 201.724 8.06179C202.081 8.7081 202.26 9.5483 202.26 10.5824V20H199.564V18.0611H199.453C199.274 18.4181 199.007 18.7689 198.65 19.1136C198.293 19.4583 197.834 19.7446 197.274 19.9723C196.714 20.2 196.043 20.3139 195.261 20.3139ZM195.861 18.098C196.624 18.098 197.277 17.9472 197.819 17.6456C198.366 17.344 198.782 16.95 199.065 16.4638C199.354 15.9714 199.499 15.4451 199.499 14.8849V13.0568C199.401 13.1553 199.21 13.2476 198.927 13.3338C198.65 13.4138 198.333 13.4846 197.976 13.5462C197.619 13.6016 197.271 13.6539 196.932 13.7031C196.594 13.7462 196.311 13.7831 196.083 13.8139C195.547 13.8816 195.058 13.9955 194.615 14.1555C194.178 14.3156 193.827 14.5464 193.562 14.848C193.304 15.1435 193.174 15.5374 193.174 16.0298C193.174 16.7131 193.427 17.2301 193.932 17.581C194.436 17.9257 195.079 18.098 195.861 18.098ZM206.717 20V5.81818H209.385V8.07102H209.533C209.791 7.30776 210.247 6.70762 210.899 6.2706C211.558 5.82741 212.303 5.60582 213.134 5.60582C213.306 5.60582 213.509 5.61198 213.743 5.62429C213.983 5.6366 214.171 5.65199 214.306 5.67045V8.31108C214.195 8.2803 213.998 8.24645 213.715 8.20952C213.432 8.16643 213.149 8.14489 212.866 8.14489C212.213 8.14489 211.632 8.28338 211.121 8.56037C210.616 8.8312 210.216 9.20975 209.921 9.69602C209.625 10.1761 209.477 10.724 209.477 11.3395V20H206.717ZM224.933 5.81818V8.03409H217.187V5.81818H224.933ZM219.264 2.42045H222.025V15.8359C222.025 16.3714 222.105 16.7746 222.265 17.0455C222.425 17.3101 222.631 17.4917 222.883 17.5902C223.142 17.6825 223.422 17.7287 223.724 17.7287C223.945 17.7287 224.139 17.7133 224.305 17.6825C224.471 17.6518 224.601 17.6271 224.693 17.6087L225.192 19.8892C225.032 19.9508 224.804 20.0123 224.508 20.0739C224.213 20.1416 223.844 20.1785 223.4 20.1847C222.674 20.197 221.997 20.0677 221.369 19.7969C220.741 19.526 220.234 19.1075 219.846 18.5412C219.458 17.9749 219.264 17.264 219.264 16.4084V2.42045ZM239.166 9.28054L236.663 9.72372C236.559 9.40365 236.393 9.09896 236.165 8.80966C235.943 8.52036 235.642 8.28338 235.26 8.09872C234.878 7.91406 234.401 7.82173 233.829 7.82173C233.047 7.82173 232.395 7.99716 231.871 8.34801C231.348 8.69271 231.087 9.13897 231.087 9.68679C231.087 10.1607 231.262 10.5424 231.613 10.8317C231.964 11.121 232.53 11.358 233.312 11.5426L235.565 12.0597C236.87 12.3613 237.842 12.826 238.482 13.4538C239.122 14.0817 239.443 14.8973 239.443 15.9006C239.443 16.75 239.196 17.5071 238.704 18.1719C238.218 18.8305 237.537 19.3475 236.663 19.723C235.795 20.0985 234.789 20.2862 233.644 20.2862C232.056 20.2862 230.76 19.9477 229.757 19.2706C228.754 18.5874 228.138 17.6179 227.911 16.3622L230.579 15.956C230.745 16.6515 231.087 17.1778 231.604 17.5348C232.121 17.8857 232.795 18.0611 233.626 18.0611C234.531 18.0611 235.254 17.8733 235.795 17.4979C236.337 17.1162 236.608 16.6515 236.608 16.1037C236.608 15.6605 236.442 15.2881 236.109 14.9865C235.783 14.6849 235.282 14.4571 234.604 14.3033L232.204 13.777C230.88 13.4754 229.902 12.9953 229.268 12.3366C228.64 11.678 228.326 10.844 228.326 9.83452C228.326 8.9974 228.56 8.26491 229.028 7.63707C229.496 7.00923 230.142 6.51989 230.967 6.16903C231.791 5.81203 232.736 5.63352 233.801 5.63352C235.334 5.63352 236.54 5.96591 237.42 6.63068C238.301 7.2893 238.882 8.17258 239.166 9.28054ZM251.14 20V1.09091H253.993V9.30824H263.42V1.09091H266.282V20H263.42V11.755H253.993V20H251.14ZM277.108 20.2862C275.711 20.2862 274.507 19.9877 273.498 19.3906C272.494 18.7874 271.719 17.9411 271.171 16.8516C270.629 15.7559 270.359 14.4725 270.359 13.0014C270.359 11.5488 270.629 10.2685 271.171 9.16051C271.719 8.05256 272.482 7.18774 273.461 6.56605C274.446 5.94437 275.597 5.63352 276.914 5.63352C277.714 5.63352 278.49 5.76586 279.241 6.03054C279.992 6.29522 280.666 6.7107 281.263 7.27699C281.86 7.84328 282.331 8.57883 282.675 9.48366C283.02 10.3823 283.192 11.4749 283.192 12.7614V13.7401H271.919V11.6719H280.487C280.487 10.9455 280.339 10.3023 280.044 9.74219C279.748 9.1759 279.333 8.72964 278.797 8.40341C278.268 8.07718 277.646 7.91406 276.932 7.91406C276.157 7.91406 275.48 8.10488 274.901 8.48651C274.329 8.86198 273.886 9.3544 273.572 9.96378C273.264 10.567 273.11 11.2225 273.11 11.9304V13.5462C273.11 14.4941 273.276 15.3004 273.609 15.9652C273.947 16.63 274.418 17.1378 275.021 17.4886C275.624 17.8333 276.329 18.0057 277.136 18.0057C277.659 18.0057 278.136 17.9318 278.567 17.7841C278.997 17.6302 279.37 17.4025 279.684 17.1009C279.998 16.7992 280.238 16.4268 280.404 15.9837L283.017 16.4545C282.808 17.224 282.432 17.898 281.89 18.4766C281.355 19.049 280.681 19.4953 279.868 19.8153C279.062 20.1293 278.142 20.2862 277.108 20.2862ZM287.035 20V5.81818H289.704V8.07102H289.851C290.11 7.30776 290.565 6.70762 291.218 6.2706C291.877 5.82741 292.621 5.60582 293.452 5.60582C293.625 5.60582 293.828 5.61198 294.062 5.62429C294.302 5.6366 294.489 5.65199 294.625 5.67045V8.31108C294.514 8.2803 294.317 8.24645 294.034 8.20952C293.751 8.16643 293.468 8.14489 293.185 8.14489C292.532 8.14489 291.95 8.28338 291.439 8.56037C290.935 8.8312 290.535 9.20975 290.239 9.69602C289.944 10.1761 289.796 10.724 289.796 11.3395V20H287.035ZM303.398 20.2862C302.001 20.2862 300.798 19.9877 299.788 19.3906C298.785 18.7874 298.009 17.9411 297.461 16.8516C296.92 15.7559 296.649 14.4725 296.649 13.0014C296.649 11.5488 296.92 10.2685 297.461 9.16051C298.009 8.05256 298.773 7.18774 299.751 6.56605C300.736 5.94437 301.887 5.63352 303.204 5.63352C304.005 5.63352 304.78 5.76586 305.531 6.03054C306.282 6.29522 306.956 6.7107 307.553 7.27699C308.15 7.84328 308.621 8.57883 308.966 9.48366C309.31 10.3823 309.483 11.4749 309.483 12.7614V13.7401H298.209V11.6719H306.778C306.778 10.9455 306.63 10.3023 306.334 9.74219C306.039 9.1759 305.623 8.72964 305.088 8.40341C304.559 8.07718 303.937 7.91406 303.223 7.91406C302.447 7.91406 301.77 8.10488 301.192 8.48651C300.619 8.86198 300.176 9.3544 299.862 9.96378C299.554 10.567 299.4 11.2225 299.4 11.9304V13.5462C299.4 14.4941 299.567 15.3004 299.899 15.9652C300.238 16.63 300.708 17.1378 301.312 17.4886C301.915 17.8333 302.62 18.0057 303.426 18.0057C303.949 18.0057 304.426 17.9318 304.857 17.7841C305.288 17.6302 305.66 17.4025 305.974 17.1009C306.288 16.7992 306.528 16.4268 306.694 15.9837L309.307 16.4545C309.098 17.224 308.723 17.898 308.181 18.4766C307.645 19.049 306.971 19.4953 306.159 19.8153C305.353 20.1293 304.432 20.2862 303.398 20.2862ZM315.145 20.1754C314.64 20.1754 314.206 19.9969 313.843 19.6399C313.48 19.2768 313.298 18.8397 313.298 18.3288C313.298 17.8241 313.48 17.3932 313.843 17.0362C314.206 16.6731 314.64 16.4915 315.145 16.4915C315.649 16.4915 316.083 16.6731 316.447 17.0362C316.81 17.3932 316.991 17.8241 316.991 18.3288C316.991 18.6674 316.905 18.9782 316.733 19.2614C316.567 19.5384 316.345 19.7599 316.068 19.9261C315.791 20.0923 315.483 20.1754 315.145 20.1754Z" fill="#979797"/>
</svg>
